<?xml version="1.0" encoding="utf-8"?>
<!-- Generator: Adobe Illustrator 15.0.0, SVG Export Plug-In  -->
<!DOCTYPE svg PUBLIC "-//W3C//DTD SVG 1.1//EN" "http://www.w3.org/Graphics/SVG/1.1/DTD/svg11.dtd" [
	<!ENTITY ns_flows "http://ns.adobe.com/Flows/1.0/">
]>
<svg version="1.1"
	 xmlns="http://www.w3.org/2000/svg" xmlns:xlink="http://www.w3.org/1999/xlink" xmlns:a="http://ns.adobe.com/AdobeSVGViewerExtensions/3.0/"
	 x="0px" y="0px" width="99px" height="18px" viewBox="-1.401 -0.957 99 18" enable-background="new -1.401 -0.957 99 18"
	 xml:space="preserve">
<defs>
</defs>
<circle fill="#A3A3A3" cx="1.641" cy="1.642" r="1.641"/>
<circle fill="#A3A3A3" cx="8.278" cy="1.642" r="1.641"/>
<circle fill="#A3A3A3" cx="14.915" cy="1.642" r="1.642"/>
<circle fill="#A3A3A3" cx="21.551" cy="1.642" r="1.641"/>
<circle fill="#A3A3A3" cx="28.189" cy="1.642" r="1.641"/>
<circle fill="#A3A3A3" cx="34.825" cy="1.642" r="1.641"/>
<circle fill="#A3A3A3" cx="41.462" cy="1.642" r="1.641"/>
<circle fill="#A3A3A3" cx="48.099" cy="1.642" r="1.642"/>
<circle fill="#A3A3A3" cx="54.735" cy="1.642" r="1.642"/>
<circle fill="#A3A3A3" cx="61.372" cy="1.642" r="1.641"/>
<circle fill="#A3A3A3" cx="68.009" cy="1.642" r="1.642"/>
<circle fill="#A3A3A3" cx="74.646" cy="1.642" r="1.641"/>
<circle fill="#A3A3A3" cx="81.283" cy="1.642" r="1.642"/>
<circle fill="#A3A3A3" cx="87.919" cy="1.642" r="1.642"/>
<circle fill="#A3A3A3" cx="94.556" cy="1.642" r="1.641"/>
<circle fill="#A3A3A3" cx="1.641" cy="8.094" r="1.641"/>
<circle fill="#A3A3A3" cx="8.278" cy="8.094" r="1.641"/>
<circle fill="#A3A3A3" cx="14.915" cy="8.094" r="1.642"/>
<circle fill="#A3A3A3" cx="21.551" cy="8.094" r="1.641"/>
<circle fill="#A3A3A3" cx="28.189" cy="8.094" r="1.641"/>
<circle fill="#A3A3A3" cx="34.825" cy="8.094" r="1.641"/>
<circle fill="#A3A3A3" cx="41.462" cy="8.094" r="1.641"/>
<circle fill="#A3A3A3" cx="48.099" cy="8.094" r="1.642"/>
<circle fill="#A3A3A3" cx="54.735" cy="8.094" r="1.642"/>
<circle fill="#A3A3A3" cx="61.372" cy="8.094" r="1.641"/>
<circle fill="#A3A3A3" cx="68.009" cy="8.094" r="1.642"/>
<circle fill="#A3A3A3" cx="74.646" cy="8.094" r="1.641"/>
<circle fill="#A3A3A3" cx="81.283" cy="8.094" r="1.642"/>
<circle fill="#A3A3A3" cx="87.919" cy="8.094" r="1.642"/>
<circle fill="#A3A3A3" cx="94.556" cy="8.094" r="1.641"/>
<circle fill="#A3A3A3" cx="1.641" cy="14.546" r="1.641"/>
<circle fill="#A3A3A3" cx="8.278" cy="14.546" r="1.641"/>
<circle fill="#A3A3A3" cx="14.915" cy="14.546" r="1.642"/>
<circle fill="#A3A3A3" cx="21.551" cy="14.546" r="1.641"/>
<circle fill="#A3A3A3" cx="28.189" cy="14.546" r="1.641"/>
<circle fill="#A3A3A3" cx="34.825" cy="14.546" r="1.641"/>
<circle fill="#A3A3A3" cx="41.462" cy="14.546" r="1.641"/>
<circle fill="#A3A3A3" cx="48.099" cy="14.546" r="1.642"/>
<circle fill="#A3A3A3" cx="54.735" cy="14.546" r="1.642"/>
<circle fill="#A3A3A3" cx="61.372" cy="14.546" r="1.641"/>
<circle fill="#A3A3A3" cx="68.009" cy="14.546" r="1.642"/>
<circle fill="#A3A3A3" cx="74.646" cy="14.546" r="1.641"/>
<circle fill="#A3A3A3" cx="81.283" cy="14.546" r="1.642"/>
<circle fill="#A3A3A3" cx="87.919" cy="14.546" r="1.642"/>
<circle fill="#A3A3A3" cx="94.556" cy="14.546" r="1.641"/>
</svg>
