<?xml version="1.0" encoding="UTF-8"?>
<svg version="1.1" xmlns="http://www.w3.org/2000/svg" width="350" height="371">
<path d="M0 0 C3.14614445 1.44742748 6.07823528 3.14491129 9 5 C9 5.66 9 6.32 9 7 C9.98226562 7.34998047 9.98226562 7.34998047 10.984375 7.70703125 C23.460075 13.05606843 39.10582644 21.23806171 45 34 C45.84243946 36.85261577 46.13360645 39.41707031 46.16062927 42.38647461 C46.17569771 43.69393898 46.17569771 43.69393898 46.19107056 45.02781677 C46.19690155 45.97641068 46.20273254 46.92500458 46.20874023 47.90234375 C46.21852402 48.90777725 46.2283078 49.91321075 46.23838806 50.94911194 C46.26831356 54.27856125 46.28972386 57.60797032 46.30859375 60.9375 C46.31516558 62.07727295 46.3217374 63.2170459 46.32850838 64.39135742 C46.36109504 70.42869831 46.38554351 76.46602165 46.4050293 82.50341797 C46.4228133 87.4870796 46.45758917 92.47017233 46.50756836 97.45361328 C46.56794954 103.48186028 46.59853031 109.50958147 46.60820198 115.53811646 C46.61672975 117.82811603 46.63548104 120.11810258 46.6649456 122.40792847 C46.95398381 146.15587979 46.95398381 146.15587979 40 155 C37.65155322 157.25047041 35.33100857 158.91005983 32.5 160.5 C31.86191406 160.88929688 31.22382813 161.27859375 30.56640625 161.6796875 C29.31740106 162.44083994 28.06105762 163.19011195 26.796875 163.92578125 C25.03180436 164.98098652 23.34706805 166.11163072 21.65625 167.28125 C19 169 19 169 17 169 C17 169.66 17 170.32 17 171 C15.05981445 172.44873047 15.05981445 172.44873047 12.36328125 174.1171875 C11.39326172 174.72433594 10.42324219 175.33148438 9.42382812 175.95703125 C7.8837207 176.90642578 7.8837207 176.90642578 6.3125 177.875 C4.30690333 179.11967611 2.30294266 180.36699298 0.30078125 181.6171875 C-0.59471436 182.17003418 -1.49020996 182.72288086 -2.4128418 183.29248047 C-5.07991537 185.052744 -7.51392636 186.99486622 -10 189 C-11.2657791 189.84975271 -12.54755366 190.67640902 -13.84765625 191.47265625 C-14.53537109 191.89740234 -15.22308594 192.32214844 -15.93164062 192.75976562 C-16.63482422 193.18966797 -17.33800781 193.61957031 -18.0625 194.0625 C-23.33381965 197.26239768 -23.33381965 197.26239768 -28.37109375 200.80859375 C-30 202 -30 202 -32 202 C-32 202.66 -32 203.32 -32 204 C-33.89257812 205.41699219 -33.89257812 205.41699219 -36.53125 207.046875 C-37.48773438 207.645 -38.44421875 208.243125 -39.4296875 208.859375 C-40.94949219 209.79523438 -40.94949219 209.79523438 -42.5 210.75 C-48.61246759 214.5362004 -54.63735224 218.31064611 -60.33081055 222.71044922 C-67.17758425 228 -67.17758425 228 -71 228 C-71.06959394 220.26339486 -71.12285889 212.52682229 -71.15543652 204.78997517 C-71.17107439 201.19719171 -71.19227779 197.60462285 -71.22631836 194.01196289 C-71.25897965 190.54305609 -71.27686714 187.07435536 -71.28463173 183.60530663 C-71.29285018 181.64161248 -71.31625892 179.67800092 -71.33988953 177.71443176 C-71.34011612 176.5135643 -71.34034271 175.31269684 -71.34057617 174.07543945 C-71.34723801 173.02064896 -71.35389984 171.96585846 -71.36076355 170.87910461 C-70.87143034 166.9739387 -69.42376197 164.20242357 -66.40600586 161.65380859 C-65.84792236 161.32203613 -65.28983887 160.99026367 -64.71484375 160.6484375 C-64.10189453 160.27203125 -63.48894531 159.895625 -62.85742188 159.5078125 C-62.22384766 159.13398438 -61.59027344 158.76015625 -60.9375 158.375 C-55.85597113 155.40265169 -55.85597113 155.40265169 -52 151 C-49.8203125 149.67578125 -49.8203125 149.67578125 -47.125 148.3125 C-40.77706876 144.96404936 -34.91903186 141.04685189 -29 137 C-27.54349548 136.01811505 -26.08529705 135.03873562 -24.625 134.0625 C-23.92375 133.588125 -23.2225 133.11375 -22.5 132.625 C-20.5000356 131.32502314 -18.48789802 130.09148352 -16.4375 128.875 C-15.8089209 128.49335693 -15.1803418 128.11171387 -14.53271484 127.71850586 C-13.29229275 126.96685515 -12.04288848 126.22976561 -10.78369141 125.51000977 C-7.23061139 123.33371096 -4.88167438 121.19263376 -3.46142578 117.21069336 C-2.41428792 112.19385033 -2.57352631 107.10161448 -2.625 102 C-2.60759766 100.27523437 -2.60759766 100.27523437 -2.58984375 98.515625 C-2.61136462 92.28891902 -2.79475725 87.4173117 -6 82 C-9.82585554 79.44942964 -11.44263092 79.48545833 -16 80 C-20.36274574 81.8361469 -24.05463167 84.18227042 -27.6328125 87.27734375 C-32.63039197 91.51955785 -38.43114135 94.6482503 -44.03710938 98.0078125 C-49.27254408 101.18768607 -54.12531223 104.56801004 -58.90795898 108.39306641 C-62.4540633 111.11689166 -66.30745991 113.33562517 -70.19921875 115.52734375 C-74.65799242 118.22633535 -76.51500556 121.13349271 -78 126 C-78.45120528 129.56966958 -78.45120528 129.56966958 -78.39872742 133.33360291 C-78.40537424 134.03787133 -78.41202107 134.74213976 -78.41886932 135.46774966 C-78.43740638 137.80929774 -78.43490042 140.15033065 -78.43237305 142.49194336 C-78.44139591 144.1776908 -78.45172442 145.86343168 -78.46325684 147.54916382 C-78.49079136 152.11267078 -78.50010654 156.67605312 -78.50611091 161.23963237 C-78.5155038 166.0136105 -78.54170795 170.7874959 -78.56611633 175.56141663 C-78.60975982 184.59577834 -78.63832001 193.63012203 -78.66143972 202.66455704 C-78.6885029 212.95236425 -78.73241374 223.24007807 -78.77772844 233.52781856 C-78.87054392 254.68516211 -78.94223886 275.84253361 -79 297 C-79.66 297.33 -80.32 297.66 -81 298 C-82.92016602 297.03125 -82.92016602 297.03125 -85.25390625 295.5 C-86.10919922 294.94183594 -86.96449219 294.38367188 -87.84570312 293.80859375 C-88.74224609 293.21175781 -89.63878906 292.61492187 -90.5625 292 C-91.43197266 291.43410156 -92.30144531 290.86820312 -93.19726562 290.28515625 C-98.32716109 286.91113104 -103.20007825 283.33089942 -108.01049805 279.51806641 C-110.4295166 277.67226233 -112.97274446 276.1738849 -115.625 274.6875 C-121.41260428 271.10469735 -124.48040359 266.70978004 -128 261 C-128.515625 260.40574219 -129.03125 259.81148438 -129.5625 259.19921875 C-134.21613603 252.07966145 -133.28494179 242.99182045 -133.25878906 234.84814453 C-133.26150303 233.42478253 -133.26506623 232.00142193 -133.26940918 230.57806396 C-133.27848888 226.73084617 -133.27500681 222.88373623 -133.26865101 219.03651667 C-133.26356608 214.99731322 -133.26828955 210.95811863 -133.27142334 206.91891479 C-133.27505657 200.13521681 -133.27028165 193.35156245 -133.26074219 186.56787109 C-133.24986765 178.74485876 -133.25337852 170.92195076 -133.264395 163.09894097 C-133.27349672 156.36406286 -133.27473882 149.629216 -133.26951766 142.89433372 C-133.26641265 138.87999951 -133.26594779 134.8657142 -133.27259064 130.85138321 C-133.27840526 127.07398646 -133.2742926 123.296723 -133.26280212 119.51934052 C-133.25893334 117.4864571 -133.26480657 115.4535623 -133.27105713 113.42068481 C-133.19362358 96.52357747 -128.89011018 85.0628052 -117.00390625 72.86328125 C-99.80189153 56 -99.80189153 56 -92 56 C-92 55.34 -92 54.68 -92 54 C-90.55395508 52.90600586 -90.55395508 52.90600586 -88.51953125 51.71484375 C-87.77445313 51.27140625 -87.029375 50.82796875 -86.26171875 50.37109375 C-85.45347656 49.89800781 -84.64523438 49.42492187 -83.8125 48.9375 C-78.24621987 45.61512655 -72.78661422 42.25288532 -67.5 38.5 C-61.5674308 34.30028583 -55.42205019 30.52291761 -49.17773438 26.8046875 C-46.1364962 24.98155799 -43.25564783 23.20555199 -40.48828125 20.98046875 C-37.10795729 18.29000682 -33.43563891 16.25900979 -29.6875 14.125 C-24.39517474 11.07106621 -19.36911145 7.96024187 -14.5546875 4.18359375 C-9.82744485 0.58471304 -5.91195411 -0.8016209 0 0 Z " fill="#B48439" transform="translate(157,24)"/>
<path d="M0 0 C4.99588481 1.41105143 8.80489236 3.58218133 13.0625 6.4375 C17.92747852 9.66172342 17.92747852 9.66172342 22.93359375 12.66015625 C23.61550781 13.10230469 24.29742187 13.54445313 25 14 C25 14.66 25 15.32 25 16 C26.0209375 16.35771484 26.0209375 16.35771484 27.0625 16.72265625 C30.62488804 18.27172658 33.77151274 20.30242135 37 22.4375 C38.20787957 23.22855788 39.41620507 24.01893532 40.625 24.80859375 C41.48158203 25.37296143 41.48158203 25.37296143 42.35546875 25.94873047 C43.85077665 26.9046087 45.39245208 27.78695763 46.9375 28.66015625 C47.618125 29.10230469 48.29875 29.54445313 49 30 C49 30.66 49 31.32 49 32 C50.04414063 32.37511719 50.04414063 32.37511719 51.109375 32.7578125 C61.09081837 37.04713546 70.21214232 44.45496078 79.01245117 50.76489258 C82.6241483 53.35154225 86.2449304 55.78512228 90.0625 58.0625 C95.3192416 61.48143546 98.81149749 66.68293314 102 72 C102 72.66 102 73.32 102 74 C103.65 73.34 105.3 72.68 107 72 C106.649375 72.886875 106.29875 73.77375 105.9375 74.6875 C104.92972309 78.24831176 105.25277746 79.48644928 106 83 C106.09395107 85.00538315 106.1379413 87.01342672 106.14526367 89.02099609 C106.15164352 90.21348969 106.15802338 91.40598328 106.16459656 92.63461304 C106.16570938 93.91792511 106.1668222 95.20123718 106.16796875 96.5234375 C106.17118828 97.87041254 106.17455286 99.21738724 106.17805481 100.56436157 C106.18403634 103.39040941 106.18589607 106.21642675 106.18530273 109.04248047 C106.18520198 112.62030412 106.19876789 116.19792543 106.21607494 119.77570152 C106.22734167 122.56255951 106.2292174 125.34937115 106.22869301 128.13624954 C106.23041084 130.08282198 106.2411693 132.02937994 106.25224304 133.97592163 C106.23000644 142.82259564 105.35814973 151.27311219 104 160 C103.34 160 102.68 160 102 160 C101.79375 160.845625 101.5875 161.69125 101.375 162.5625 C98.5804487 169.54887824 93.72560878 173.47296248 87.48046875 177.40625 C84.77418275 179.14509203 82.20836343 181.02116764 79.625 182.9375 C75.08056645 186.27730811 70.41985092 189.32647516 65.60546875 192.26171875 C63.15038216 193.89967008 60.96450917 195.7131144 58.72045898 197.6237793 C55.30548162 200.35547043 51.59738622 202.67561768 47.9375 205.0625 C43.11993027 208.2126007 38.4945633 211.4001225 34 215 C30.32869897 217.53162846 26.58692965 219.95768735 22.85742188 222.40234375 C17.03365248 226.24554009 11.35530185 230.24756948 5.95776367 234.67529297 C4 236 4 236 1 236 C0.86071533 226.86379923 0.75423609 217.7279663 0.68912697 208.5909338 C0.65787063 204.34775616 0.61550443 200.10530715 0.54736328 195.86254883 C0.48196373 191.76464792 0.44625112 187.66744586 0.43073654 183.56906319 C0.41968676 182.00893723 0.39810814 180.4488477 0.36561966 178.88902092 C0.09068278 165.13650551 0.09068278 165.13650551 3.77636719 160.67089844 C5.42556763 159.1736908 5.42556763 159.1736908 7 158 C8.07822021 157.13822144 8.07822021 157.13822144 9.17822266 156.2590332 C9.8335498 155.86031006 10.48887695 155.46158691 11.1640625 155.05078125 C11.89367187 154.59509766 12.62328125 154.13941406 13.375 153.66992188 C14.1175 153.22197266 14.86 152.77402344 15.625 152.3125 C20.24126015 149.48484237 24.17431118 146.8485515 28 143 C30.51678189 141.265063 33.13114574 139.70018026 35.75 138.125 C40.69904945 135.09538741 45.48033238 132.03368315 50.05078125 128.44921875 C54.18789734 125.37332682 58.62357681 122.7191747 63 120 C62.29875 119.443125 61.5975 118.88625 60.875 118.3125 C59.00366755 116.80729781 57.16493352 115.26033429 55.3671875 113.66796875 C50.12986776 109.28452337 44.02142205 106.03847637 38.171875 102.55273438 C37.25148438 101.99521484 36.33109375 101.43769531 35.3828125 100.86328125 C34.54121582 100.36094971 33.69961914 99.85861816 32.83251953 99.34106445 C32.22778809 98.89851318 31.62305664 98.45596191 31 98 C31 97.34 31 96.68 31 96 C30.27296875 95.73703125 29.5459375 95.4740625 28.796875 95.203125 C25.95946484 93.98256309 23.74570768 92.56061145 21.25 90.75 C17.95660509 88.3877733 14.64503855 86.08865689 11.25 83.875 C9.83309376 82.91702091 8.41640785 81.95871583 7 81 C6.09701172 80.43925781 6.09701172 80.43925781 5.17578125 79.8671875 C1.88092654 77.58552056 0.62358308 75.57400454 -0.14575195 71.77563477 C-1.38529392 64.83146175 -1.26923846 57.87036743 -1.23046875 50.83984375 C-1.22927418 49.39921612 -1.22882437 47.9585877 -1.2290802 46.51795959 C-1.22752721 43.52176939 -1.21932207 40.5257007 -1.20581055 37.52954102 C-1.18868346 33.68261234 -1.18500077 29.83581486 -1.18575573 25.9888525 C-1.18548468 23.02499634 -1.18001627 20.06116905 -1.17275429 17.09732246 C-1.16956801 15.677488 -1.16760031 14.25765027 -1.16686058 12.83781242 C-1.16470443 10.86573994 -1.1551781 8.8936796 -1.14526367 6.92163086 C-1.14145187 5.7992955 -1.13764008 4.67696014 -1.13371277 3.52061462 C-1 1 -1 1 0 0 Z " fill="#EDEDEA" transform="translate(220,64)"/>
<path d="M0 0 C4.87025392 1.60143746 8.59046106 4.39172839 12.6875 7.375 C18.83919354 11.79153156 25.05735824 16.07456633 31.375 20.25 C32.86991326 21.25372518 34.36470839 22.25762632 35.859375 23.26171875 C38.39646797 24.95952087 40.95298173 26.58687672 43.578125 28.14453125 C50.65061546 32.59657332 50.65061546 32.59657332 51.6953125 36.79296875 C51.77407263 41.05164175 51.11072037 44.90182485 50 49 C49.34 49 48.68 49 48 49 C47.79375 49.845625 47.5875 50.69125 47.375 51.5625 C44.5804487 58.54887824 39.72560878 62.47296248 33.48046875 66.40625 C30.77418275 68.14509203 28.20836343 70.02116764 25.625 71.9375 C21.08056645 75.27730811 16.41985092 78.32647516 11.60546875 81.26171875 C9.15038216 82.89967008 6.96450917 84.7131144 4.72045898 86.6237793 C1.30548162 89.35547043 -2.40261378 91.67561768 -6.0625 94.0625 C-10.88006973 97.2126007 -15.5054367 100.4001225 -20 104 C-23.67130103 106.53162846 -27.41307035 108.95768735 -31.14257812 111.40234375 C-36.96634752 115.24554009 -42.64469815 119.24756948 -48.04223633 123.67529297 C-50 125 -50 125 -53 125 C-53.13928467 115.86379923 -53.24576391 106.7279663 -53.31087303 97.5909338 C-53.34212937 93.34775616 -53.38449557 89.10530715 -53.45263672 84.86254883 C-53.51803627 80.76464792 -53.55374888 76.66744586 -53.56926346 72.56906319 C-53.58031324 71.00893723 -53.60189186 69.4488477 -53.63438034 67.88902092 C-53.90931722 54.13650551 -53.90931722 54.13650551 -50.22363281 49.67089844 C-48.57443237 48.1736908 -48.57443237 48.1736908 -47 47 C-46.28118652 46.42548096 -45.56237305 45.85096191 -44.82177734 45.2590332 C-44.1664502 44.86031006 -43.51112305 44.46158691 -42.8359375 44.05078125 C-42.10632813 43.59509766 -41.37671875 43.13941406 -40.625 42.66992188 C-39.8825 42.22197266 -39.14 41.77402344 -38.375 41.3125 C-33.75873985 38.48484237 -29.82568882 35.8485515 -26 32 C-23.48321811 30.265063 -20.86885426 28.70018026 -18.25 27.125 C-13.30095055 24.09538741 -8.51966762 21.03368315 -3.94921875 17.44921875 C0.18789734 14.37332682 4.62357681 11.7191747 9 9 C7.83404297 8.09507812 7.83404297 8.09507812 6.64453125 7.171875 C3.99456686 4.99553792 2.05128007 2.7350401 0 0 Z " fill="#BC0E19" transform="translate(274,175)"/>
<path d="M0 0 C0.06955626 9.04047403 0.12283974 18.08085573 0.15543652 27.12153912 C0.17108253 31.31964772 0.1923012 35.51757304 0.22631836 39.71557617 C0.25895002 43.76802684 0.27686102 47.82030138 0.28463173 51.87287331 C0.29016843 53.41782211 0.30098034 54.96276143 0.31719017 56.50763512 C0.33901566 58.67416477 0.34196488 60.83996963 0.34057617 63.0065918 C0.34723801 64.23903122 0.35389984 65.47147064 0.36076355 66.74125671 C-0.1153349 71.04180933 -1.57495167 73.68361461 -4.73535156 76.60302734 C-5.3640918 77.0511377 -5.99283203 77.49924805 -6.640625 77.9609375 C-7.34509766 78.46463867 -8.04957031 78.96833984 -8.77539062 79.48730469 C-13.11725899 82.43969894 -17.54626585 85.24527079 -21.99609375 88.03125 C-24.93400903 89.89843494 -27.60179046 91.60179046 -30.0703125 94.0703125 C-32.73195205 96.73195205 -35.87691085 98.40879141 -39.125 100.25 C-44.87341305 103.58041869 -50.02464194 107.18476414 -55.046875 111.56640625 C-57 113 -57 113 -60 113 C-60.16262819 104.14190024 -60.28678787 95.28431902 -60.3626852 86.42504883 C-60.39912414 82.31065922 -60.44849786 78.19729539 -60.52807617 74.08349609 C-60.60447797 70.10875465 -60.64606046 66.13499582 -60.6641407 62.15957642 C-60.67701442 60.64768005 -60.70215522 59.13583383 -60.7401104 57.62435913 C-61.0609306 44.31158597 -61.0609306 44.31158597 -56.64599609 39.16601562 C-54.80209351 37.43908691 -54.80209351 37.43908691 -53 36 C-52.00355469 35.1646875 -51.00710937 34.329375 -49.98046875 33.46875 C-48.59794922 32.49421875 -48.59794922 32.49421875 -47.1875 31.5 C-46.25292969 30.8296875 -45.31835938 30.159375 -44.35546875 29.46875 C-42 28 -42 28 -40 28 C-40 27.34 -40 26.68 -40 26 C-38.10400391 24.48779297 -38.10400391 24.48779297 -35.4765625 22.7421875 C-34.538125 22.11699219 -33.5996875 21.49179688 -32.6328125 20.84765625 C-31.64023438 20.19667969 -30.64765625 19.54570312 -29.625 18.875 C-28.64015625 18.21628906 -27.6553125 17.55757812 -26.640625 16.87890625 C-19.26670872 12 -19.26670872 12 -17 12 C-16.67 11.01 -16.34 10.02 -16 9 C-14.52539062 7.83325195 -14.52539062 7.83325195 -12.65625 6.73828125 C-11.98722656 6.34189453 -11.31820312 5.94550781 -10.62890625 5.53710938 C-9.92636719 5.13298828 -9.22382813 4.72886719 -8.5 4.3125 C-7.44619141 3.68891602 -7.44619141 3.68891602 -6.37109375 3.05273438 C-1.16791102 0 -1.16791102 0 0 0 Z " fill="#09255A" transform="translate(215,232)"/>
<path d="M0 0 C0.66 0.33 1.32 0.66 2 1 C1.13117187 1.7734375 0.26234375 2.546875 -0.6328125 3.34375 C-11.86502571 13.4405418 -19.71918226 21.77829591 -21.37657547 37.59332466 C-21.52990771 41.50844657 -21.56468702 45.4132622 -21.54931641 49.33032227 C-21.5580351 50.82014983 -21.56840944 52.30996847 -21.58029175 53.79977417 C-21.60682464 57.8059838 -21.60825778 61.81181332 -21.60316515 65.81809354 C-21.60100992 69.17780874 -21.61083187 72.53744948 -21.62037599 75.89714855 C-21.64247829 83.8282188 -21.64348942 91.7590995 -21.63134766 99.69018555 C-21.61925861 107.84238938 -21.64393326 115.99390368 -21.68648779 124.14598995 C-21.72182352 131.17657443 -21.7337068 138.20694037 -21.72721231 145.23761028 C-21.72360451 149.42313538 -21.72867823 153.6081678 -21.75664139 157.79361153 C-21.78196212 161.72980283 -21.77775984 165.66492431 -21.75181961 169.60110092 C-21.74712502 171.03608896 -21.75242377 172.47115433 -21.76906586 173.90605354 C-21.87765023 184.00480745 -20.41321357 192.97448648 -13.43055153 200.74697208 C-11.64699724 202.34312097 -11.64699724 202.34312097 -8.625 204.3125 C-7.47356159 205.1225907 -6.32381573 205.93509253 -5.17578125 206.75 C-3.60376953 207.86375 -3.60376953 207.86375 -2 209 C-0.58375745 210.24804851 0.81551312 211.51595843 2.1875 212.8125 C5.71681762 216.01211491 9.51291017 217.8148893 13.8046875 219.81640625 C16.68833866 221.37111497 18.19737515 223.29606273 20 226 C21.31494512 227.35147138 22.64264858 228.69112542 24 230 C15.13516699 226.81318959 7.55608707 220.56209648 0.28515625 214.703125 C-2.24915461 212.81430528 -4.89447194 211.27752178 -7.625 209.6875 C-13.41260428 206.10469735 -16.48040359 201.70978004 -20 196 C-20.515625 195.40574219 -21.03125 194.81148437 -21.5625 194.19921875 C-26.21613603 187.07966145 -25.28494179 177.99182045 -25.25878906 169.84814453 C-25.26150303 168.42478253 -25.26506623 167.00142193 -25.26940918 165.57806396 C-25.27848888 161.73084617 -25.27500681 157.88373623 -25.26865101 154.03651667 C-25.26356608 149.99731322 -25.26828955 145.95811863 -25.27142334 141.91891479 C-25.27505657 135.13521681 -25.27028165 128.35156245 -25.26074219 121.56787109 C-25.24986765 113.74485876 -25.25337852 105.92195076 -25.264395 98.09894097 C-25.27349672 91.36406286 -25.27473882 84.629216 -25.26951766 77.89433372 C-25.26641265 73.87999951 -25.26594779 69.8657142 -25.27259064 65.85138321 C-25.27840526 62.07398646 -25.2742926 58.296723 -25.26280212 54.51934052 C-25.25893334 52.4864571 -25.26480657 50.4535623 -25.27105713 48.42068481 C-25.1918188 31.12974939 -20.52154179 20.24279311 -8.78125 7.7265625 C-5.96254012 4.96327669 -3.06666941 2.48039438 0 0 Z " fill="#583E1C" transform="translate(49,89)"/>
<path d="M0 0 C3.14614445 1.44742748 6.07823528 3.14491129 9 5 C9 5.66 9 6.32 9 7 C9.65484375 7.23332031 10.3096875 7.46664063 10.984375 7.70703125 C14.9311231 9.39922506 18.55548765 11.50685246 22.25 13.6875 C23.00490723 14.13303223 23.75981445 14.57856445 24.53759766 15.03759766 C41.53327731 25.21011408 41.53327731 25.21011408 43.56273651 31.83773232 C44.93097606 37.7126803 45.30753282 43.28260023 45.32226562 49.30224609 C45.33716034 50.78464027 45.33716034 50.78464027 45.35235596 52.29698181 C45.38136707 55.53916285 45.39516158 58.78114845 45.40625 62.0234375 C45.41473213 63.69499342 45.41473213 63.69499342 45.42338562 65.40031815 C45.45327176 71.2939065 45.47179397 77.18739812 45.48046875 83.08105469 C45.49144373 89.14585151 45.5395376 95.20975161 45.59641266 101.2742672 C45.63377805 105.96022081 45.64408239 110.64596036 45.6471405 115.33205032 C45.65316605 117.56704248 45.66912977 119.8020321 45.69551086 122.03687668 C45.94793667 145.05746545 45.94793667 145.05746545 39 153 C35.04103557 156.71405854 31.45728791 159.98756197 26 161 C28.3246438 158.4893847 30.62969664 156.57094514 33.5 154.75 C38.42246051 151.34864317 40.16298471 146.51104587 42 141 C42.09620622 139.61162576 42.13910935 138.21916429 42.14717102 136.82748413 C42.15432632 135.97812286 42.16148163 135.1287616 42.16885376 134.25366211 C42.17154266 133.32481201 42.17423157 132.39596191 42.17700195 131.43896484 C42.18357315 130.4581192 42.19014435 129.47727356 42.19691467 128.46670532 C42.2166533 125.21478195 42.22831299 121.96290482 42.23828125 118.7109375 C42.24235678 117.59960072 42.2464323 116.48826393 42.25063133 115.34325027 C42.27149676 109.45849035 42.28579516 103.57375377 42.29516602 97.68896484 C42.30621755 91.61954119 42.34060198 85.55048544 42.38033772 79.48119164 C42.40652615 74.80733575 42.41485997 70.13356712 42.41844749 65.45964432 C42.42330945 63.22302395 42.43491222 60.98640739 42.45348549 58.74985886 C42.47791841 55.61208014 42.47690374 52.47524772 42.4699707 49.33740234 C42.48278076 48.42069763 42.49559082 47.50399292 42.50878906 46.55950928 C42.45150897 39.41349576 40.72773066 33.40668545 36.2109375 27.765625 C31.18096439 23.61322167 25.9577758 20.64925686 20 18 C20 17.34 20 16.68 20 16 C18.948125 15.62875 18.948125 15.62875 17.875 15.25 C13.51619385 13.35486689 9.83089857 10.57654186 5.9375 7.875 C2.39450202 5.61351193 -0.44710034 4 -4.6875 4 C-12.0600544 6.2256768 -18.35062692 11.21156212 -24.69140625 15.47265625 C-27.25110026 17.16612555 -29.83039293 18.81787682 -32.4375 20.4375 C-33.26121094 20.95183594 -34.08492188 21.46617188 -34.93359375 21.99609375 C-35.61550781 22.32738281 -36.29742187 22.65867187 -37 23 C-37.66 22.67 -38.32 22.34 -39 22 C-38.18015625 21.46890625 -37.3603125 20.9378125 -36.515625 20.390625 C-35.43796875 19.68421875 -34.3603125 18.9778125 -33.25 18.25 C-31.64898437 17.20585938 -31.64898437 17.20585938 -30.015625 16.140625 C-27.34977826 14.24828819 -25.27336861 12.32440342 -23 10 C-8.47086702 -1.14859214 -8.47086702 -1.14859214 0 0 Z " fill="#DBB862" transform="translate(157,24)"/>
<path d="M0 0 C0.66 0.33 1.32 0.66 2 1 C1.51322375 2.00374444 1.02644751 3.00748888 0.52492046 4.04164982 C-1.10701059 7.87003129 -1.38335335 11.14878197 -1.39872742 15.33360291 C-1.40537424 16.03787133 -1.41202107 16.74213976 -1.41886932 17.46774966 C-1.43740638 19.80929774 -1.43490042 22.15033065 -1.43237305 24.49194336 C-1.44139591 26.1776908 -1.45172442 27.86343168 -1.46325684 29.54916382 C-1.49079136 34.11267078 -1.50010654 38.67605312 -1.50611091 43.23963237 C-1.5155038 48.0136105 -1.54170795 52.7874959 -1.56611633 57.56141663 C-1.60975982 66.59577834 -1.63832001 75.63012203 -1.66143972 84.66455704 C-1.6885029 94.95236425 -1.73241374 105.24007807 -1.77772844 115.52781856 C-1.87054392 136.68516211 -1.94223886 157.84253361 -2 179 C-2.66 179.33 -3.32 179.66 -4 180 C-4.99 179.01 -5.98 178.02 -7 177 C-6.34 177 -5.68 177 -5 177 C-4.99668985 176.13970373 -4.99337971 175.27940746 -4.98996925 174.39304161 C-4.90875251 153.46111419 -4.81666434 132.52925924 -4.71247292 111.59743309 C-4.66234897 101.47496426 -4.61590599 91.35250352 -4.578125 81.22998047 C-4.54518617 72.40729874 -4.50534442 63.58467983 -4.45720994 54.76206744 C-4.43196382 50.09047952 -4.41017692 45.41893317 -4.39665604 40.74729538 C-4.38381862 36.349486 -4.36174599 31.95181931 -4.33261681 27.55408859 C-4.32355419 25.94084212 -4.31785386 24.32757267 -4.31578636 22.71430206 C-4.3124545 20.5091921 -4.29695248 18.30448445 -4.2784729 16.09945679 C-4.27294214 14.86609777 -4.26741138 13.63273876 -4.26171303 12.36200523 C-3.88423916 7.5129187 -2.69143232 4.03714848 0 0 Z " fill="#4D3B20" transform="translate(80,142)"/>
<path d="M0 0 C0.66 0.33 1.32 0.66 2 1 C1.02404877 1.81975311 1.02404877 1.81975311 0.02838135 2.65606689 C-2.45491056 5.5256802 -2.48842258 6.76193863 -2.45410156 10.50292969 C-2.45364838 12.15418854 -2.45364838 12.15418854 -2.45318604 13.83880615 C-2.43254089 15.02121887 -2.41189575 16.20363159 -2.390625 17.421875 C-2.38496521 18.63699768 -2.37930542 19.85212036 -2.37347412 21.10406494 C-2.35107734 24.98644343 -2.30087187 28.86790028 -2.25 32.75 C-2.2299394 35.38149709 -2.21168787 38.01300864 -2.1953125 40.64453125 C-2.15120153 47.09666881 -2.08425519 53.54826856 -2 60 C0.40861104 60.17213141 0.40861104 60.17213141 3 60 C5.076774 58.10144419 5.076774 58.10144419 6.41015625 56.56640625 C9.18142901 53.83598764 12.4750206 51.8116123 15.6953125 49.6484375 C17.99000125 48.11302678 17.99000125 48.11302678 19.625 46.3125 C21 45 21 45 23.875 44.625 C27.91510138 43.81697972 29.32518844 42.04631317 32 39 C34 37 34 37 36.625 36.875 C37.40875 36.91625 38.1925 36.9575 39 37 C37.71034824 38.37562854 36.37310707 39.70766393 35 41 C34.34 41 33.68 41 33 41 C33 41.66 33 42.32 33 43 C31.10742188 44.41699219 31.10742188 44.41699219 28.46875 46.046875 C27.51226562 46.645 26.55578125 47.243125 25.5703125 47.859375 C24.55710937 48.48328125 23.54390625 49.1071875 22.5 49.75 C16.38753241 53.5362004 10.36264776 57.31064611 4.66918945 61.71044922 C-2.17758425 67 -2.17758425 67 -6 67 C-6.06959394 59.26339486 -6.12285889 51.52682229 -6.15543652 43.78997517 C-6.17107439 40.19719171 -6.19227779 36.60462285 -6.22631836 33.01196289 C-6.25897965 29.54305609 -6.27686714 26.07435536 -6.28463173 22.60530663 C-6.29285018 20.64161248 -6.31625892 18.67800092 -6.33988953 16.71443176 C-6.34011612 15.5135643 -6.34034271 14.31269684 -6.34057617 13.07543945 C-6.34723801 12.02064896 -6.35389984 10.96585846 -6.36076355 9.87910461 C-5.94126748 6.53128007 -5.00110523 4.69656337 -3 2 C-2.01 1.34 -1.02 0.68 0 0 Z " fill="#7C5B2A" transform="translate(92,185)"/>
<path d="M0 0 C0.66 0.33 1.32 0.66 2 1 C1.13117187 1.7734375 0.26234375 2.546875 -0.6328125 3.34375 C-11.92971177 13.49868899 -20.45145426 22.47241806 -21.34802246 38.48452759 C-21.51036889 43.68427385 -21.45103036 48.88099507 -21.390625 54.08203125 C-21.38314826 55.99158633 -21.37746212 57.90114917 -21.37347412 59.81071472 C-21.3583305 64.79368943 -21.31914827 69.77618462 -21.2746582 74.75897217 C-21.23345987 79.8607332 -21.21541107 84.96257306 -21.1953125 90.06445312 C-21.15264114 100.04317739 -21.08452944 110.02154855 -21 120 C-21.33 120 -21.66 120 -22 120 C-22.33 112.74 -22.66 105.48 -23 98 C-23.66 98 -24.32 98 -25 98 C-25.04657662 90.34971037 -25.08199682 82.69943566 -25.10362434 75.04903603 C-25.1140105 71.4956927 -25.12807377 67.9424472 -25.15087891 64.38916016 C-25.17699843 60.29328534 -25.18651545 56.19751144 -25.1953125 52.1015625 C-25.20563507 50.8407486 -25.21595764 49.57993469 -25.22659302 48.28091431 C-25.22876093 31.05251139 -20.46517112 20.18269679 -8.78125 7.7265625 C-5.96254012 4.96327669 -3.06666941 2.48039438 0 0 Z " fill="#7A5727" transform="translate(49,89)"/>
<path d="M0 0 C0.66 0 1.32 0 2 0 C2.90815118 7.60145297 3.20320895 15.13823437 3.31640625 22.7890625 C3.33718735 23.97349945 3.35796844 25.1579364 3.37937927 26.37826538 C3.4442752 30.12712324 3.50347842 33.87604553 3.5625 37.625 C3.60574236 40.180996 3.64935839 42.7369857 3.69335938 45.29296875 C3.79989431 51.52857958 3.90176714 57.76425315 4 64 C4.60328125 63.566875 5.2065625 63.13375 5.828125 62.6875 C6.62734375 62.130625 7.4265625 61.57375 8.25 61 C9.03890625 60.443125 9.8278125 59.88625 10.640625 59.3125 C13 58 13 58 17 58 C17.33 57.01 17.66 56.02 18 55 C21.5625 53.8125 21.5625 53.8125 25 53 C21.40005392 56.89994159 17.27977266 59.90135711 13 63 C12.12988281 63.64066406 11.25976562 64.28132813 10.36328125 64.94140625 C9.48027344 65.57949219 8.59726563 66.21757812 7.6875 66.875 C6.45580078 67.76832031 6.45580078 67.76832031 5.19921875 68.6796875 C3 70 3 70 0 70 C0 46.9 0 23.8 0 0 Z " fill="#540815" transform="translate(221,230)"/>
<path d="M0 0 C4.89914619 1.60456532 8.63405008 4.43428823 12.75 7.4375 C21.31342282 13.59313749 30.10187647 19.34261983 39 25 C37.14135742 25.57641602 37.14135742 25.57641602 35 26 C32.73828125 24.77734375 32.73828125 24.77734375 30.3125 22.9375 C28.99958984 21.97070312 28.99958984 21.97070312 27.66015625 20.984375 C26.78230469 20.32953125 25.90445313 19.6746875 25 19 C23.42634855 17.88207801 21.84356847 16.77684292 20.25 15.6875 C19.57453125 15.21699219 18.8990625 14.74648437 18.203125 14.26171875 C15.41723122 12.66625122 13.16985138 11.6204477 10 11 C6.84906901 12.31119639 6.84906901 12.31119639 3.9375 14.5625 C2.93589844 15.26503906 1.93429687 15.96757812 0.90234375 16.69140625 C-1.99502712 18.89061404 -1.99502712 18.89061404 -4.24609375 21.33984375 C-8.13821523 25.09946748 -12.53256124 27.96515429 -17 31 C-18.84842751 32.28534991 -20.69607486 33.57182242 -22.54296875 34.859375 C-24.42401724 36.1569199 -26.30553022 37.45379169 -28.1875 38.75 C-29.13302734 39.40871094 -30.07855469 40.06742188 -31.05273438 40.74609375 C-38.812801 46.07809772 -38.812801 46.07809772 -42.9921875 47.75390625 C-45.88442762 48.95212001 -47.12482457 49.71566987 -48.9375 52.1875 C-49.618125 53.115625 -50.29875 54.04375 -51 55 C-51.66 54.67 -52.32 54.34 -53 54 C-48.66877369 48.46565527 -44.36642946 44.92712107 -38.375 41.3125 C-33.75873985 38.48484237 -29.82568882 35.8485515 -26 32 C-23.48321811 30.265063 -20.86885426 28.70018026 -18.25 27.125 C-13.30095055 24.09538741 -8.51966762 21.03368315 -3.94921875 17.44921875 C0.18789734 14.37332682 4.62357681 11.7191747 9 9 C7.83404297 8.09507812 7.83404297 8.09507812 6.64453125 7.171875 C3.99456686 4.99553792 2.05128007 2.7350401 0 0 Z " fill="#C32832" transform="translate(274,175)"/>
<path d="M0 0 C4.99588481 1.41105143 8.80489236 3.58218133 13.0625 6.4375 C17.92747852 9.66172342 17.92747852 9.66172342 22.93359375 12.66015625 C23.61550781 13.10230469 24.29742187 13.54445313 25 14 C25 14.66 25 15.32 25 16 C25.99 16.33 26.98 16.66 28 17 C27.34 17.33 26.68 17.66 26 18 C24.33935547 17.18310547 24.33935547 17.18310547 22.3671875 15.8671875 C21.64273438 15.39023438 20.91828125 14.91328125 20.171875 14.421875 C19.41390625 13.91140625 18.6559375 13.4009375 17.875 12.875 C16.39363307 11.89261983 14.91186363 10.91084635 13.4296875 9.9296875 C12.77210449 9.48866699 12.11452148 9.04764648 11.43701172 8.59326172 C7.99199923 6.34099248 4.49574888 4.17242181 1 2 C1.0612541 10.91034252 1.13839096 19.82036562 1.23571491 28.73038769 C1.28041111 32.86784601 1.31966875 37.00520603 1.34643555 41.14282227 C1.37247624 45.13710423 1.41288368 49.13100779 1.46318626 53.12505531 C1.47984988 54.64759928 1.49136733 56.1702087 1.49761391 57.69283104 C1.50726088 59.82841886 1.53532493 61.96303975 1.56762695 64.09838867 C1.57873001 65.3130632 1.58983307 66.52773773 1.60127258 67.77922058 C2.11303217 71.91303398 3.51197321 74.60942584 6.55078125 77.44921875 C7.42283203 78.06216797 7.42283203 78.06216797 8.3125 78.6875 C9.34503906 79.42806641 9.34503906 79.42806641 10.3984375 80.18359375 C11.68621094 81.08271484 11.68621094 81.08271484 13 82 C14.84038673 83.29348427 16.67869171 84.58978165 18.5144043 85.88989258 C19.78587219 86.78913691 21.06073603 87.68360073 22.33911133 88.57299805 C26.88875345 91.77750691 26.88875345 91.77750691 28 94 C20.46325781 91.20176998 14.10009949 86.25455936 7.7890625 81.3515625 C5.87162587 79.85616989 5.87162587 79.85616989 3.125 78.25 C-3.07761241 71.68252804 -1.27676287 59.23484932 -1.23046875 50.83984375 C-1.22927418 49.39921612 -1.22882437 47.9585877 -1.2290802 46.51795959 C-1.22752721 43.52176939 -1.21932207 40.5257007 -1.20581055 37.52954102 C-1.18868346 33.68261234 -1.18500077 29.83581486 -1.18575573 25.9888525 C-1.18548468 23.02499634 -1.18001627 20.06116905 -1.17275429 17.09732246 C-1.16956801 15.677488 -1.16760031 14.25765027 -1.16686058 12.83781242 C-1.16470443 10.86573994 -1.1551781 8.8936796 -1.14526367 6.92163086 C-1.14145187 5.7992955 -1.13764008 4.67696014 -1.13371277 3.52061462 C-1 1 -1 1 0 0 Z " fill="#8D867E" transform="translate(220,64)"/>
<path d="M0 0 C0.33 0 0.66 0 1 0 C1.86363317 6.68702795 2.13830779 13.19768633 2.11352539 19.93579102 C2.11367142 20.99049088 2.11381744 22.04519073 2.1139679 23.1318512 C2.11327584 26.58922441 2.10551677 30.04654254 2.09765625 33.50390625 C2.09578956 35.91242951 2.09436684 38.32095315 2.09336853 40.72947693 C2.08956316 47.04722149 2.07974987 53.3649428 2.06866455 59.68267822 C2.05840776 66.13805833 2.05386178 72.59344221 2.04882812 79.04882812 C2.03812574 91.69922863 2.02126735 104.34961307 2 117 C-4.75 113.375 -4.75 113.375 -7 110 C-5.35 110.33 -3.7 110.66 -2 111 C-2 111.66 -2 112.32 -2 113 C-1.34 113 -0.68 113 0 113 C0 75.71 0 38.42 0 0 Z " fill="#A5722F" transform="translate(74,203)"/>
<path d="M0 0 C0.54269531 0.23203125 1.08539063 0.4640625 1.64453125 0.703125 C1.31453125 2.353125 0.98453125 4.003125 0.64453125 5.703125 C-0.34546875 5.373125 -1.33546875 5.043125 -2.35546875 4.703125 C-4.99310407 5.99477771 -4.99310407 5.99477771 -7.73046875 7.890625 C-8.66632813 8.50292969 -9.6021875 9.11523438 -10.56640625 9.74609375 C-12.34022051 10.99074493 -14.07942076 12.28744931 -15.765625 13.6484375 C-18.86166044 16.10471901 -22.10903948 18.23520099 -25.41796875 20.390625 C-31.50128688 24.38507935 -37.32514849 28.61064847 -43.0625 33.0859375 C-45.35546875 34.703125 -45.35546875 34.703125 -47.35546875 34.703125 C-47.58234375 35.239375 -47.80921875 35.775625 -48.04296875 36.328125 C-49.35546875 38.703125 -49.35546875 38.703125 -51.85546875 41.265625 C-55.44499207 45.36339941 -55.73083228 50.46363696 -56.35546875 55.703125 C-56.68546875 55.703125 -57.01546875 55.703125 -57.35546875 55.703125 C-58.40220393 43.87335595 -58.40220393 43.87335595 -56.18359375 39.2734375 C-51.59263882 33.82987665 -45.36859627 29.45260418 -39.35546875 25.703125 C-38.69546875 25.703125 -38.03546875 25.703125 -37.35546875 25.703125 C-37.35546875 25.043125 -37.35546875 24.383125 -37.35546875 23.703125 C-35.45947266 22.19091797 -35.45947266 22.19091797 -32.83203125 20.4453125 C-31.89359375 19.82011719 -30.95515625 19.19492188 -29.98828125 18.55078125 C-28.99570313 17.89980469 -28.003125 17.24882812 -26.98046875 16.578125 C-25.995625 15.91941406 -25.01078125 15.26070312 -23.99609375 14.58203125 C-16.62217747 9.703125 -16.62217747 9.703125 -14.35546875 9.703125 C-14.02546875 8.713125 -13.69546875 7.723125 -13.35546875 6.703125 C-10.9921875 4.84375 -10.9921875 4.84375 -8.04296875 2.953125 C-7.07746094 2.31890625 -6.11195313 1.6846875 -5.1171875 1.03125 C-2.35546875 -0.296875 -2.35546875 -0.296875 0 0 Z " fill="#272F4B" transform="translate(212.35546875,234.296875)"/>
<path d="M0 0 C0.33 0.66 0.66 1.32 1 2 C2.65 1.34 4.3 0.68 6 0 C5.649375 0.886875 5.29875 1.77375 4.9375 2.6875 C3.92824184 6.25354549 4.25812628 7.47985693 5 11 C5.08484715 13.08496185 5.11777525 15.17234997 5.11352539 17.2590332 C5.11344986 18.49994217 5.11337433 19.74085114 5.11329651 21.0193634 C5.10819072 22.36316977 5.10297474 23.70697571 5.09765625 25.05078125 C5.09578965 26.43368987 5.09436689 27.81659915 5.09336853 29.19950867 C5.08956237 32.82774706 5.07974843 36.455945 5.06866455 40.08416748 C5.05840945 43.79113213 5.05386215 47.49810336 5.04882812 51.20507812 C5.03812435 58.47007046 5.0210709 65.73502955 5 73 C4.01 72.67 3.02 72.34 2 72 C1.9845388 70.77970596 1.9845388 70.77970596 1.96876526 69.53475952 C1.87064352 61.85473171 1.76810872 54.17478131 1.66066074 46.49487877 C1.60557995 42.54690609 1.55218443 38.59892583 1.50268555 34.65087891 C1.45482211 30.838282 1.40247275 27.02577029 1.34705925 23.21327591 C1.32673486 21.76130938 1.30800604 20.30931957 1.29092598 18.85731125 C1.26666087 16.8180377 1.23663882 14.77892191 1.20532227 12.73974609 C1.18200584 11.00100723 1.18200584 11.00100723 1.15821838 9.22714233 C1.00386213 6.07877497 0.5846478 3.09476768 0 0 Z " fill="#A69E9F" transform="translate(321,136)"/>
<path d="M0 0 C0.33 0 0.66 0 1 0 C1.00808685 0.6573262 1.01617371 1.3146524 1.02450562 1.99189758 C1.11043124 8.82121433 1.20992949 15.65023679 1.31738281 22.47924805 C1.35571278 25.02932806 1.39055848 27.57946289 1.421875 30.12963867 C1.46743799 33.79105243 1.52544738 37.4520875 1.5859375 41.11328125 C1.59748871 42.2571077 1.60903992 43.40093414 1.62094116 44.579422 C1.64081085 45.64029526 1.66068054 46.70116852 1.68115234 47.79418945 C1.69447601 48.72906693 1.70779968 49.6639444 1.7215271 50.62715149 C1.84916728 53.26551607 1.84916728 53.26551607 4 56 C4.33 55.34 4.66 54.68 5 54 C5.82371094 53.58878906 6.64742187 53.17757812 7.49609375 52.75390625 C12.80801427 50.09498505 17.56464798 46.65235188 22.45507812 43.29492188 C29.669 38.403 29.669 38.403 34 37 C30.62843628 42.00325632 26.48361197 44.37839008 21.375 47.3125 C15.07567473 51.02314795 9.34532557 54.79838191 3.84765625 59.63671875 C2 61 2 61 -1 61 C-1.02537991 53.27702538 -1.04287951 45.55406153 -1.05493164 37.83105469 C-1.05995667 35.20442299 -1.06677774 32.57779409 -1.07543945 29.95117188 C-1.08758507 26.17317007 -1.09324667 22.39520529 -1.09765625 18.6171875 C-1.10281754 17.44509735 -1.10797882 16.2730072 -1.11329651 15.06539917 C-1.11337204 13.964711 -1.11344757 12.86402283 -1.11352539 11.72998047 C-1.115746 10.76623505 -1.11796661 9.80248962 -1.12025452 8.80953979 C-0.99169966 5.8060769 -0.55092001 2.95282758 0 0 Z " fill="#09152E" transform="translate(156,284)"/>
<path d="M0 0 C0.06955626 9.04047403 0.12283974 18.08085573 0.15543652 27.12153912 C0.17108253 31.31964772 0.1923012 35.51757304 0.22631836 39.71557617 C0.25895002 43.76802684 0.27686102 47.82030138 0.28463173 51.87287331 C0.29016843 53.41782211 0.30098034 54.96276143 0.31719017 56.50763512 C0.33901566 58.67416477 0.34196488 60.83996963 0.34057617 63.0065918 C0.34723801 64.23903122 0.35389984 65.47147064 0.36076355 66.74125671 C-0.10743199 70.9704231 -1.52988805 73.62199145 -4.62109375 76.51953125 C-5.52021484 77.15955078 -5.52021484 77.15955078 -6.4375 77.8125 C-7.47197266 78.55306641 -7.47197266 78.55306641 -8.52734375 79.30859375 C-13.32008606 82.58704149 -18.14622116 85.81268523 -23 89 C-23.66 88.67 -24.32 88.34 -25 88 C-19.33749253 83.40008652 -13.53731135 79.34172891 -7.28515625 75.578125 C-4.76227394 74.04363679 -4.76227394 74.04363679 -3 71 C-2.66298699 67.96064585 -2.66298699 67.96064585 -2.6652832 64.44897461 C-2.65363129 63.78850632 -2.64197937 63.12803802 -2.62997437 62.44755554 C-2.59400704 60.26584399 -2.57212929 58.08424355 -2.55078125 55.90234375 C-2.52952949 54.38683585 -2.50756235 52.87133782 -2.48490906 51.35585022 C-2.43951553 48.1808815 -2.40072008 45.0059237 -2.36694336 41.83081055 C-2.32336211 37.75606522 -2.26663445 33.68163751 -2.2053957 29.60712337 C-2.15926768 26.47856958 -2.11845264 23.34996517 -2.07942772 20.22131538 C-2.06034981 18.71855574 -2.03998833 17.21581183 -2.01833534 15.71308708 C-1.98923784 13.61595567 -1.96689359 11.5188629 -1.9465332 9.42163086 C-1.93258011 8.227108 -1.91862701 7.03258514 -1.9042511 5.80186462 C-1.80376763 3.04546055 -1.80376763 3.04546055 -3 1 C-1 0 -1 0 0 0 Z " fill="#151C3C" transform="translate(215,232)"/>
<path d="M0 0 C0.66 0 1.32 0 2 0 C2 27.72 2 55.44 2 84 C1.01 84.495 1.01 84.495 0 85 C-0.99 84.01 -1.98 83.02 -3 82 C-2.34 82 -1.68 82 -1 82 C-0.505 41.41 -0.505 41.41 0 0 Z " fill="#392E19" transform="translate(76,237)"/>
<path d="M0 0 C0.66 0 1.32 0 2 0 C2.28230469 0.87140625 2.56460937 1.7428125 2.85546875 2.640625 C6.47915949 13.27671386 10.75929743 19.40041938 19.82421875 25.75 C22.49565278 27.64267651 24.8157152 29.57113921 27.1875 31.8125 C30.71681762 35.01211491 34.51291017 36.8148893 38.8046875 38.81640625 C41.68833866 40.37111497 43.19737515 42.29606273 45 45 C46.31494512 46.35147138 47.64264858 47.69112542 49 49 C40.13516699 45.81318959 32.55608707 39.56209648 25.28515625 33.703125 C22.75084539 31.81430528 20.10552806 30.27752178 17.375 28.6875 C11.58739572 25.10469735 8.51959641 20.70978004 5 15 C4.46761719 14.35933594 3.93523438 13.71867187 3.38671875 13.05859375 C1.64739719 10.47655864 1.28661667 8.31352308 0.8125 5.25 C0.65394531 4.26515625 0.49539062 3.2803125 0.33203125 2.265625 C0.22246094 1.51796875 0.11289062 0.7703125 0 0 Z " fill="#442F16" transform="translate(24,270)"/>
<path d="M0 0 C0.78375 0.04125 1.5675 0.0825 2.375 0.125 C1.08534824 1.50062854 -0.25189293 2.83266393 -1.625 4.125 C-2.285 4.125 -2.945 4.125 -3.625 4.125 C-3.625 4.785 -3.625 5.445 -3.625 6.125 C-5.51757812 7.54199219 -5.51757812 7.54199219 -8.15625 9.171875 C-9.11273438 9.77 -10.06921875 10.368125 -11.0546875 10.984375 C-12.06789063 11.60828125 -13.08109375 12.2321875 -14.125 12.875 C-20.23629632 16.66047488 -26.25984612 20.43310857 -31.94970703 24.83544922 C-38.82151647 30.125 -38.82151647 30.125 -41.625 30.125 C-41.295 26.165 -40.965 22.205 -40.625 18.125 C-40.295 18.125 -39.965 18.125 -39.625 18.125 C-39.295 19.775 -38.965 21.425 -38.625 23.125 C-36.33663778 23.54486946 -36.33663778 23.54486946 -33.625 23.125 C-31.548226 21.22644419 -31.548226 21.22644419 -30.21484375 19.69140625 C-27.44357099 16.96098764 -24.1499794 14.9366123 -20.9296875 12.7734375 C-18.63499875 11.23802678 -18.63499875 11.23802678 -17 9.4375 C-15.625 8.125 -15.625 8.125 -12.75 7.75 C-8.70989862 6.94197972 -7.29981156 5.17131317 -4.625 2.125 C-2.625 0.125 -2.625 0.125 0 0 Z " fill="#765526" transform="translate(128.625,221.875)"/>
<path d="M0 0 C0.33 0 0.66 0 1 0 C1.1531067 7.06148243 1.25761378 14.12253132 1.32958984 21.18530273 C1.35961876 23.58390295 1.40045512 25.98239469 1.45263672 28.38061523 C1.52606242 31.84386064 1.55959711 35.30564495 1.5859375 38.76953125 C1.61690521 39.82831985 1.64787292 40.88710846 1.67977905 41.97798157 C1.6832769 49.85246242 -0.32737124 55.6241554 -5 62 C-8.91212416 65.74079888 -12.5659708 68.99187693 -18 70 C-15.6753562 67.4893847 -13.37030336 65.57094514 -10.5 63.75 C-5.57753949 60.34864317 -3.83701529 55.51104587 -2 50 C-1.85727899 47.09684125 -1.76637116 44.21346678 -1.71875 41.30859375 C-1.70034058 40.44871353 -1.68193115 39.58883331 -1.66296387 38.70289612 C-1.60423176 35.94783359 -1.5514902 33.19270677 -1.5 30.4375 C-1.44828151 27.70729538 -1.39508389 24.97716338 -1.33703613 22.24708557 C-1.30097677 20.54968187 -1.26842564 18.8521984 -1.2401123 17.15464783 C-1.11834471 11.39757133 -0.6461821 5.72127023 0 0 Z " fill="#E0A748" transform="translate(201,115)"/>
<path d="M0 0 C4.99588481 1.41105143 8.80489236 3.58218133 13.0625 6.4375 C17.92747852 9.66172342 17.92747852 9.66172342 22.93359375 12.66015625 C23.61550781 13.10230469 24.29742187 13.54445313 25 14 C25 14.66 25 15.32 25 16 C25.99 16.33 26.98 16.66 28 17 C27.34 17.33 26.68 17.66 26 18 C24.33935547 17.18310547 24.33935547 17.18310547 22.3671875 15.8671875 C21.64273438 15.39023438 20.91828125 14.91328125 20.171875 14.421875 C19.41390625 13.91140625 18.6559375 13.4009375 17.875 12.875 C16.39363307 11.89261983 14.91186363 10.91084635 13.4296875 9.9296875 C12.77210449 9.48866699 12.11452148 9.04764648 11.43701172 8.59326172 C7.99273519 6.34147363 4.48955067 4.18096917 1 2 C1 21.47 1 40.94 1 61 C0.67 61 0.34 61 0 61 C-0.1536073 53.19434745 -0.30178897 45.38861271 -0.4429636 37.58272648 C-0.5086825 33.95849515 -0.57629966 30.3343196 -0.64819336 26.71020508 C-0.71745158 23.21547391 -0.78180408 19.72068427 -0.84269524 16.22579765 C-0.87863704 14.23754858 -0.91971453 12.24939453 -0.96083069 10.26124573 C-0.98092697 9.06007614 -1.00102325 7.85890656 -1.02172852 6.62133789 C-1.04171402 5.55766495 -1.06169952 4.493992 -1.08229065 3.39808655 C-1 1 -1 1 0 0 Z " fill="#948C82" transform="translate(220,64)"/>
<path d="M0 0 C4.89914619 1.60456532 8.63405008 4.43428823 12.75 7.4375 C21.31342282 13.59313749 30.10187647 19.34261983 39 25 C37.14135742 25.57641602 37.14135742 25.57641602 35 26 C32.73828125 24.77734375 32.73828125 24.77734375 30.3125 22.9375 C28.99958984 21.97070312 28.99958984 21.97070312 27.66015625 20.984375 C26.78230469 20.32953125 25.90445313 19.6746875 25 19 C23.42634855 17.88207801 21.84356847 16.77684292 20.25 15.6875 C19.57453125 15.21699219 18.8990625 14.74648437 18.203125 14.26171875 C15.33125207 12.61701138 13.30540853 11.54023021 10 11 C7.07586048 12.21472998 4.65821639 13.99472505 2.125 15.875 C1.43664062 16.36097656 0.74828125 16.84695312 0.0390625 17.34765625 C-1.65377621 18.54675034 -3.32874069 19.77100779 -5 21 C-5.66 20.67 -6.32 20.34 -7 20 C-3.53726925 17.13865759 0.00686276 14.63425466 3.8125 12.25 C4.78832031 11.63640625 5.76414062 11.0228125 6.76953125 10.390625 C7.50558594 9.93171875 8.24164063 9.4728125 9 9 C8.22269531 8.39671875 7.44539063 7.7934375 6.64453125 7.171875 C3.99456686 4.99553792 2.05128007 2.7350401 0 0 Z " fill="#CD232A" transform="translate(274,175)"/>
<path d="M0 0 C0.33 0 0.66 0 1 0 C1.7819582 6.67449063 2.13867699 13.22775692 2.09765625 19.9453125 C2.0962413 20.84120087 2.09482635 21.73708923 2.09336853 22.66012573 C2.08783441 25.48178653 2.07529489 28.30336376 2.0625 31.125 C2.05747646 33.05468634 2.05291506 34.98437395 2.04882812 36.9140625 C2.03788669 41.6094065 2.02066878 46.30468915 2 51 C-4.75 47.375 -4.75 47.375 -7 44 C-5.35 44.33 -3.7 44.66 -2 45 C-2 45.66 -2 46.32 -2 47 C-1.34 47 -0.68 47 0 47 C0 31.49 0 15.98 0 0 Z " fill="#916428" transform="translate(74,269)"/>
<path d="M0 0 C0.54269531 0.23203125 1.08539063 0.4640625 1.64453125 0.703125 C1.31453125 2.353125 0.98453125 4.003125 0.64453125 5.703125 C-0.34546875 5.373125 -1.33546875 5.043125 -2.35546875 4.703125 C-4.99310407 5.99477771 -4.99310407 5.99477771 -7.73046875 7.890625 C-8.66632813 8.50292969 -9.6021875 9.11523438 -10.56640625 9.74609375 C-12.32423252 10.97952647 -14.04866942 12.26341447 -15.71875 13.61328125 C-19.07126002 16.27045586 -22.5970052 18.60209828 -26.16796875 20.953125 C-26.86083984 21.41203125 -27.55371094 21.8709375 -28.26757812 22.34375 C-29.96213762 23.46566525 -31.65860909 24.58469172 -33.35546875 25.703125 C-33.35546875 24.713125 -33.35546875 23.723125 -33.35546875 22.703125 C-31.125 21.0546875 -31.125 21.0546875 -28.16796875 19.328125 C-23.44261265 16.48092104 -23.44261265 16.48092104 -19.35546875 12.828125 C-17.35546875 10.703125 -17.35546875 10.703125 -14.35546875 9.703125 C-14.02546875 8.713125 -13.69546875 7.723125 -13.35546875 6.703125 C-10.9921875 4.84375 -10.9921875 4.84375 -8.04296875 2.953125 C-7.07746094 2.31890625 -6.11195313 1.6846875 -5.1171875 1.03125 C-2.35546875 -0.296875 -2.35546875 -0.296875 0 0 Z " fill="#323C66" transform="translate(212.35546875,234.296875)"/>
<path d="M0 0 C4.36754332 1.09188583 7.53227964 3.02324867 11.25 5.4375 C11.8996875 5.84548828 12.549375 6.25347656 13.21875 6.67382812 C14.85109284 7.72490602 16.43086118 8.85671035 18 10 C18 10.66 18 11.32 18 12 C14.42597488 10.69289187 11.49002567 9.11587706 8.375 6.9375 C5.82843844 5.16012171 3.96802184 3.98934061 1 3 C1 24.12 1 45.24 1 67 C0.67 67 0.34 67 0 67 C0 44.89 0 22.78 0 0 Z " fill="#F7F6F4" transform="translate(222,67)"/>
<path d="M0 0 C0.33 0 0.66 0 1 0 C1.33 17.82 1.66 35.64 2 54 C4.97 52.02 7.94 50.04 11 48 C12.32 48 13.64 48 15 48 C15.33 47.01 15.66 46.02 16 45 C19.5625 43.8125 19.5625 43.8125 23 43 C20.16490021 46.08019019 17.46301918 48.02264297 13.75 49.9375 C8.96043844 52.42225809 4.62965967 55.10646271 0 58 C0 38.86 0 19.72 0 0 Z " fill="#9A0510" transform="translate(223,240)"/>
<path d="M0 0 C0.66 0.33 1.32 0.66 2 1 C1.13117187 1.7734375 0.26234375 2.546875 -0.6328125 3.34375 C-14.56188626 15.86478705 -20.12632213 26.13203611 -23 45 C-23.66 45 -24.32 45 -25 45 C-24.40859432 31.43845594 -24.40859432 31.43845594 -21 25 C-20.505 23.783125 -20.01 22.56625 -19.5 21.3125 C-15.23954517 12.85764389 -7.28153189 5.87462824 0 0 Z " fill="#6E552E" transform="translate(49,89)"/>
<path d="M0 0 C0.33 0 0.66 0 1 0 C1.17668214 4.41614737 1.28164862 8.83136778 1.375 13.25 C1.45041016 15.10238281 1.45041016 15.10238281 1.52734375 16.9921875 C1.67566572 26.38591207 0.122638 34.67492895 -6.61865234 41.68261719 C-8.2109375 42.921875 -8.2109375 42.921875 -11.375 44.75 C-12.43460938 45.38421875 -13.49421875 46.0184375 -14.5859375 46.671875 C-15.38257813 47.11015625 -16.17921875 47.5484375 -17 48 C-17.66 47.67 -18.32 47.34 -19 47 C-17.80503906 46.21689453 -17.80503906 46.21689453 -16.5859375 45.41796875 C-15.52632812 44.68191406 -14.46671875 43.94585937 -13.375 43.1875 C-12.33085937 42.47980469 -11.28671875 41.77210938 -10.2109375 41.04296875 C-4.86088974 36.5228748 -1.57090478 30.46077038 -0.43603516 23.58129883 C-0.19261402 19.97960418 -0.1172165 16.42209981 -0.125 12.8125 C-0.104375 11.57435547 -0.08375 10.33621094 -0.0625 9.06054688 C-0.0158457 6.03968103 0.00448194 3.02114868 0 0 Z " fill="#8A6F48" transform="translate(202,139)"/>
<path d="M0 0 C-5.25376937 4.02522634 -10.34014022 7.8529635 -16.375 10.625 C-20.86214681 12.7185255 -23.17870034 14.95613716 -26 19 C-26.66 18.67 -27.32 18.34 -28 18 C-24.19053998 12.68984361 -19.82584083 9.26583247 -14.4375 5.6875 C-13.78837646 5.25518066 -13.13925293 4.82286133 -12.47045898 4.37744141 C-3.23369035 -1.61684517 -3.23369035 -1.61684517 0 0 Z " fill="#9C242F" transform="translate(249,211)"/>
<path d="M0 0 C0.33 0 0.66 0 1 0 C1.05850924 3.68743234 1.09376673 7.3747437 1.125 11.0625 C1.15013672 12.62000977 1.15013672 12.62000977 1.17578125 14.20898438 C1.25894101 27.30664725 1.25894101 27.30664725 -2.625 31.9375 C-3.07875 32.288125 -3.5325 32.63875 -4 33 C-4.66 32.67 -5.32 32.34 -6 32 C-5.525625 31.236875 -5.05125 30.47375 -4.5625 29.6875 C-2.41147917 25.98774417 -1.86138154 23.17057761 -1.71875 18.96484375 C-1.68136719 17.99095703 -1.64398438 17.01707031 -1.60546875 16.01367188 C-1.53502248 13.95898896 -1.46471049 11.90430143 -1.39453125 9.84960938 C-1.35714844 8.87701172 -1.31976563 7.90441406 -1.28125 6.90234375 C-1.25095703 6.01023193 -1.22066406 5.11812012 -1.18945312 4.19897461 C-1 2 -1 2 0 0 Z " fill="#AF8541" transform="translate(156,115)"/>
<path d="M0 0 C0.33 0.66 0.66 1.32 1 2 C2.65 1.34 4.3 0.68 6 0 C5.649375 0.886875 5.29875 1.77375 4.9375 2.6875 C3.91847348 6.28806038 4.27926587 7.43637013 5 11 C5.06774144 13.61481958 5.09500258 16.19979256 5.0625 18.8125 C5.05798828 19.50537109 5.05347656 20.19824219 5.04882812 20.91210938 C5.03713156 22.60811068 5.01919924 24.30406703 5 26 C4.34 26 3.68 26 3 26 C2.95101563 24.99839844 2.90203125 23.99679688 2.8515625 22.96484375 C2.77645921 21.62237241 2.70091474 20.2799257 2.625 18.9375 C2.55539062 17.62652344 2.48578125 16.31554687 2.4140625 14.96484375 C2.00982881 11.09411545 1.09892514 7.72115708 0 4 C0 2.68 0 1.36 0 0 Z " fill="#BCBAB8" transform="translate(321,136)"/>
<path d="M0 0 C0.66 0 1.32 0 2 0 C2.25910156 0.84304688 2.51820312 1.68609375 2.78515625 2.5546875 C4.07995613 6.22675661 5.68207111 9.65886652 7.4375 13.125 C7.73720703 13.73214844 8.03691406 14.33929688 8.34570312 14.96484375 C9.97926785 18.2177991 11.701295 21.17406908 14 24 C11.02233523 23.68587273 10.1314491 23.15830429 8.18359375 20.8125 C0 7.63087248 0 7.63087248 0 0 Z " fill="#372612" transform="translate(24,270)"/>
<path d="M0 0 C4.99588481 1.41105143 8.80489236 3.58218133 13.0625 6.4375 C17.92747852 9.66172342 17.92747852 9.66172342 22.93359375 12.66015625 C23.61550781 13.10230469 24.29742187 13.54445313 25 14 C25 14.66 25 15.32 25 16 C25.99 16.33 26.98 16.66 28 17 C27.34 17.33 26.68 17.66 26 18 C24.30761719 17.16723633 24.30761719 17.16723633 22.296875 15.83203125 C21.56339844 15.35056641 20.82992187 14.86910156 20.07421875 14.37304688 C19.30722656 13.85806641 18.54023438 13.34308594 17.75 12.8125 C16.99847656 12.31685547 16.24695313 11.82121094 15.47265625 11.31054688 C12.70571303 9.48281911 9.94971776 7.63923806 7.19873047 5.78759766 C4.53202933 3.99648106 1.92093032 2.34812169 -1 1 C-0.67 0.67 -0.34 0.34 0 0 Z " fill="#ADA9A2" transform="translate(220,64)"/>
<path d="M0 0 C0.33 0 0.66 0 1 0 C1.85997726 9.1253143 0.66656734 15.64846559 -5 23 C-8.86216857 26.7687828 -12.5929354 29.99687942 -18 31 C-15.6753562 28.4893847 -13.37030336 26.57094514 -10.5 24.75 C-6.40929913 21.92067156 -4.88057131 18.48306811 -3 14 C-2.47212891 13.05060547 -2.47212891 13.05060547 -1.93359375 12.08203125 C-0.81674886 9.59132695 -0.58933074 7.46485604 -0.375 4.75 C-0.30023438 3.85796875 -0.22546875 2.9659375 -0.1484375 2.046875 C-0.09945312 1.37140625 -0.05046875 0.6959375 0 0 Z " fill="#D29C44" transform="translate(201,154)"/>
<path d="M0 0 C0.66 0.33 1.32 0.66 2 1 C-2.18145133 9.88558409 -13.12705932 14.83010229 -21 20 C-21.66 19.67 -22.32 19.34 -23 19 C-17.3744524 14.43011072 -11.64473523 10.43068582 -5.3828125 6.7734375 C-2.72796821 4.79753699 -1.50457827 2.91947968 0 0 Z " fill="#0F152C" transform="translate(213,301)"/>
<path d="M0 0 C3.80133442 1.67923025 6.97082702 4.11462834 10.25 6.625 C10.80429687 7.04523438 11.35859375 7.46546875 11.9296875 7.8984375 C13.28866663 8.92938719 14.64463835 9.96429911 16 11 C15.67 11.66 15.34 12.32 15 13 C10.0845485 11.68122033 5.63558224 9.62482608 2 6 C2 5.01 2 4.02 2 3 C1.34 2.01 0.68 1.02 0 0 Z " fill="#4A3215" transform="translate(34,289)"/>
<path d="M0 0 C0.66 0.33 1.32 0.66 2 1 C-6.04033473 7.25842271 -14.23203078 12.8099279 -23 18 C-23.33 17.34 -23.66 16.68 -24 16 C-16.08 10.72 -8.16 5.44 0 0 Z " fill="#77582C" transform="translate(106,124)"/>
<path d="M0 0 C0.66 0.33 1.32 0.66 2 1 C0.6728952 4.98131441 -1.80114784 5.99257183 -5.25 8 C-5.82363281 8.34289063 -6.39726562 8.68578125 -6.98828125 9.0390625 C-8.65445365 10.03345241 -10.32714211 11.01689868 -12 12 C-13.38445312 12.8971875 -13.38445312 12.8971875 -14.796875 13.8125 C-15.52390625 14.204375 -16.2509375 14.59625 -17 15 C-17.66 14.67 -18.32 14.34 -19 14 C-18.18015625 13.46890625 -17.3603125 12.9378125 -16.515625 12.390625 C-15.43796875 11.68421875 -14.3603125 10.9778125 -13.25 10.25 C-12.18265625 9.55390625 -11.1153125 8.8578125 -10.015625 8.140625 C-7.35826454 6.25431213 -5.25326 4.33163426 -3 2 C-2.01 1.34 -1.02 0.68 0 0 Z " fill="#EEBA54" transform="translate(137,32)"/>
<path d="M0 0 C2.6875 -0.25 2.6875 -0.25 5 0 C3.71034824 1.37562854 2.37310707 2.70766393 1 4 C0.34 4 -0.32 4 -1 4 C-1 4.66 -1 5.32 -1 6 C-3.26213629 7.66264064 -5.50808909 9.18907401 -7.875 10.6875 C-8.85146484 11.33041992 -8.85146484 11.33041992 -9.84765625 11.98632812 C-11.52333642 13.05910893 -13.25865651 14.03745881 -15 15 C-15.66 14.67 -16.32 14.34 -17 14 C-13.29172999 11.17644415 -9.61282391 8.39313232 -5.6875 5.875 C-2.93709219 4.18736357 -2.93709219 4.18736357 -1.4375 1.75 C-0.963125 1.1725 -0.48875 0.595 0 0 Z " fill="#584121" transform="translate(126,222)"/>
<path d="M0 0 C2.46957354 1.5902968 2.91303311 3.40754757 3.77734375 6.14453125 C3.11734375 6.14453125 2.45734375 6.14453125 1.77734375 6.14453125 C1.05546875 5.31953125 0.33359375 4.49453125 -0.41015625 3.64453125 C-3.01903964 0.89651237 -3.01903964 0.89651237 -6.47265625 0.51953125 C-10.76339601 1.23465454 -13.56130122 2.75626585 -17.20703125 5.05078125 C-19.22265625 6.14453125 -19.22265625 6.14453125 -22.22265625 6.14453125 C-20.23604299 2.75560274 -17.98609226 1.1054808 -14.32421875 -0.3203125 C-9.65936309 -1.50820325 -4.5260742 -1.74202153 0 0 Z " fill="#9B7539" transform="translate(151.22265625,102.85546875)"/>
<path d="M0 0 C0.99 0.33 1.98 0.66 3 1 C-0.87671246 5.17781634 -5.03587533 8.22712043 -9.8125 11.3125 C-10.50537109 11.76689453 -11.19824219 12.22128906 -11.91210938 12.68945312 C-13.6045824 13.79831476 -15.30180958 14.89991438 -17 16 C-17 15.01 -17 14.02 -17 13 C-14.76953125 11.3515625 -14.76953125 11.3515625 -11.8125 9.625 C-7.59908398 7.06549889 -4.25093016 4.68438752 -1 1 C-0.67 0.67 -0.34 0.34 0 0 Z " fill="#223A6D" transform="translate(196,244)"/>
<path d="M0 0 C0.66 0.33 1.32 0.66 2 1 C-2.22889272 4.64514986 -6.55828916 7.85322014 -11.25 10.875 C-11.87390625 11.29007813 -12.4978125 11.70515625 -13.140625 12.1328125 C-14.71999451 13.15395658 -16.35654333 14.08556385 -18 15 C-18.66 14.67 -19.32 14.34 -20 14 C-19.3125 12.0625 -19.3125 12.0625 -18 10 C-17.25363281 9.86335937 -16.50726563 9.72671875 -15.73828125 9.5859375 C-12.44598082 8.88145096 -10.57695445 7.54971726 -7.875 5.5625 C-7.02679688 4.94503906 -6.17859375 4.32757813 -5.3046875 3.69140625 C-4.54414063 3.13324219 -3.78359375 2.57507813 -3 2 C-2.01 1.34 -1.02 0.68 0 0 Z " fill="#6C4E27" transform="translate(151,207)"/>
<path d="M0 0 C0.66 0.66 1.32 1.32 2 2 C-3.66666667 7.66666667 -9.33333333 13.33333333 -15 19 C-13.54948082 14.32898289 -10.81405875 11.27641929 -7.5 7.8125 C-6.75169922 7.01295898 -6.75169922 7.01295898 -5.98828125 6.19726562 C-4.02143531 4.10123007 -2.03248986 2.03248986 0 0 Z " fill="#A77937" transform="translate(46,93)"/>
<path d="M0 0 C1.4728831 4.4186493 0.98452849 7.78711017 -1 12 C-4.06755364 15.07262398 -7.40988856 17.56905738 -11 20 C-11.66 19.67 -12.32 19.34 -13 19 C-12.113125 18.34 -11.22625 17.68 -10.3125 17 C-4.94928851 12.5243176 -1.83975322 6.69001172 0 0 Z " fill="#D3131F" transform="translate(322,217)"/>
<path d="M0 0 C5.55874015 0.84911484 9.94369927 3.08237622 14 7 C14.5625 10.875 14.5625 10.875 14 14 C13.01 14.495 13.01 14.495 12 15 C12 13.948125 12 12.89625 12 11.8125 C10.89853672 7.61317124 10.61385458 7.33947884 7.125 5.25 C6.42632812 4.88390625 5.72765625 4.5178125 5.0078125 4.140625 C2.96619195 2.98079387 1.57669396 1.72543867 0 0 Z " fill="#D8131D" transform="translate(310,201)"/>
<path d="M0 0 C0.66 0.33 1.32 0.66 2 1 C-1.26198024 4.45615321 -5.05668643 6.74238196 -9.0625 9.25 C-9.79533203 9.72179687 -10.52816406 10.19359375 -11.28320312 10.6796875 C-11.98509766 11.12054688 -12.68699219 11.56140625 -13.41015625 12.015625 C-14.05090088 12.42071289 -14.69164551 12.82580078 -15.35180664 13.24316406 C-16.16766235 13.61779785 -16.16766235 13.61779785 -17 14 C-17.66 13.67 -18.32 13.34 -19 13 C-18.67 12.01 -18.34 11.02 -18 10 C-16.42708891 9.31612561 -14.84803306 8.64405007 -13.24609375 8.03125 C-9.35054273 6.24268397 -5.8949848 3.73011383 -2.35546875 1.328125 C-1.57816406 0.88984375 -0.80085938 0.4515625 0 0 Z " fill="#876532" transform="translate(127,110)"/>
<path d="M0 0 C-7.0744099 4.86679262 -14.30197966 9.19423714 -22 13 C-20.80514309 9.41542928 -19.77327439 8.85789874 -16.6875 6.8125 C-15.90761719 6.28269531 -15.12773437 5.75289063 -14.32421875 5.20703125 C-12 4 -12 4 -8 4 C-7.67 3.01 -7.34 2.02 -7 1 C-2.55696203 -1.27848101 -2.55696203 -1.27848101 0 0 Z " fill="#870611" transform="translate(246,284)"/>
<path d="M0 0 C-2.97744017 6.70646718 -8.93216266 10.24302845 -15.30078125 13.43359375 C-16.14189453 13.71396484 -16.14189453 13.71396484 -17 14 C-17.66 13.67 -18.32 13.34 -19 13 C-18.02417969 12.31292969 -17.04835938 11.62585938 -16.04296875 10.91796875 C-14.75770492 10.00796443 -13.4725546 9.09779976 -12.1875 8.1875 C-11.22360352 7.50977539 -11.22360352 7.50977539 -10.24023438 6.81835938 C-9.61826172 6.37685547 -8.99628906 5.93535156 -8.35546875 5.48046875 C-7.78465576 5.07723389 -7.21384277 4.67399902 -6.62573242 4.25854492 C-4.93499864 3.0137192 -4.93499864 3.0137192 -3.4152832 1.3449707 C-2 0 -2 0 0 0 Z " fill="#8B622B" transform="translate(115,230)"/>
<path d="M0 0 C5.04128388 1.70055284 9.26013394 4.55727119 13.6875 7.4375 C14.45900391 7.92798828 15.23050781 8.41847656 16.02539062 8.92382812 C16.76337891 9.40142578 17.50136719 9.87902344 18.26171875 10.37109375 C19.26658325 11.0196936 19.26658325 11.0196936 20.29174805 11.68139648 C22 13 22 13 24 16 C20.5839554 14.72891364 17.64293792 13.26605253 14.609375 11.25 C13.81789063 10.7240625 13.02640625 10.198125 12.2109375 9.65625 C11.39882813 9.1096875 10.58671875 8.563125 9.75 8 C8.92242187 7.4534375 8.09484375 6.906875 7.2421875 6.34375 C6.45585937 5.8178125 5.66953125 5.291875 4.859375 4.75 C4.14233398 4.27046875 3.42529297 3.7909375 2.68652344 3.296875 C1 2 1 2 0 0 Z " fill="#AAA7A8" transform="translate(272,98)"/>
<path d="M0 0 C0.33 0 0.66 0 1 0 C1.20190089 6.35987804 0.6277833 11.85221129 -1 18 C-1.66 18 -2.32 18 -3 18 C-2.88521587 15.93690624 -2.75773802 13.87451646 -2.625 11.8125 C-2.55539063 10.66394531 -2.48578125 9.51539062 -2.4140625 8.33203125 C-2.02490426 5.20040883 -1.3190149 2.84714191 0 0 Z " fill="#6A5028" transform="translate(27,116)"/>
<path d="M0 0 C-5.813898 4.64562062 -11.74677704 8.96423199 -18 13 C-18.66 12.67 -19.32 12.34 -20 12 C-19.15695312 11.38511719 -18.31390625 10.77023437 -17.4453125 10.13671875 C-16.33835189 9.32056983 -15.23159149 8.50414933 -14.125 7.6875 C-13.56941406 7.28337891 -13.01382812 6.87925781 -12.44140625 6.46289062 C-9.7195934 4.44612569 -7.89965896 2.84948844 -6 0 C-3.39677846 -0.97620808 -2.52782417 -1.26391209 0 0 Z " fill="#870E18" transform="translate(286,256)"/>
<path d="M0 0 C0.99 0.33 1.98 0.66 3 1 C-2.07799441 5.05159128 -7.01746893 8.42132281 -13 11 C-13.66 10.67 -14.32 10.34 -15 10 C-13.40207898 8.82479354 -11.79643092 7.66008753 -10.1875 6.5 C-9.29417969 5.8503125 -8.40085937 5.200625 -7.48046875 4.53125 C-5 3 -5 3 -2 3 C-2 2.34 -2 1.68 -2 1 C-1.34 0.67 -0.68 0.34 0 0 Z " fill="#E0A94B" transform="translate(110,51)"/>
<path d="M0 0 C0.33 0 0.66 0 1 0 C1 3.96 1 7.92 1 12 C-0.32 12 -1.64 12 -3 12 C-3 9.36 -3 6.72 -3 4 C-2.34 4 -1.68 4 -1 4 C-0.67 2.68 -0.34 1.36 0 0 Z " fill="#7F5C2A" transform="translate(27,130)"/>
<path d="M0 0 C4.23456275 1.53114133 7.99195772 3.64889706 11.8125 6 C12.40998047 6.35578125 13.00746094 6.7115625 13.62304688 7.078125 C15.11890414 7.99444442 16.56477862 8.99135247 18 10 C18 10.66 18 11.32 18 12 C14.12750294 10.58220053 10.79251936 8.77015212 7.3125 6.5625 C5.88357422 5.66724609 5.88357422 5.66724609 4.42578125 4.75390625 C2 3 2 3 0 0 Z " fill="#AAA9A9" transform="translate(251,84)"/>
<path d="M0 0 C0 0.66 0 1.32 0 2 C-0.72445312 2.38671875 -1.44890625 2.7734375 -2.1953125 3.171875 C-7.29177543 5.9171697 -12.26213387 8.67068867 -17 12 C-17.66 11.67 -18.32 11.34 -19 11 C-3.64325843 0 -3.64325843 0 0 0 Z " fill="#9D7D44" transform="translate(108,52)"/>
<path d="M0 0 C4.16259759 1.4800347 7.58509308 3.5446929 11.25 6 C12.83554687 7.051875 12.83554687 7.051875 14.453125 8.125 C17 10 17 10 18 12 C14.34426939 10.62992438 11.04532353 8.98982135 7.6875 7 C6.80449219 6.484375 5.92148438 5.96875 5.01171875 5.4375 C4.34785156 4.963125 3.68398437 4.48875 3 4 C3 3.34 3 2.68 3 2 C2.01 1.67 1.02 1.34 0 1 C0 0.67 0 0.34 0 0 Z " fill="#8B837F" transform="translate(248,158)"/>
<path d="M0 0 C-1.7241302 1.29838176 -3.45453232 2.58843747 -5.1875 3.875 C-6.63189453 4.95394531 -6.63189453 4.95394531 -8.10546875 6.0546875 C-10.71128675 7.80596599 -13.04792144 8.97459794 -16 10 C-14.66666667 8.66666667 -13.33333333 7.33333333 -12 6 C-11.195625 5.13375 -10.39125 4.2675 -9.5625 3.375 C-3.84615385 -1.92307692 -3.84615385 -1.92307692 0 0 Z " fill="#E51E29" transform="translate(271,196)"/>
<path d="M0 0 C0.66 0.33 1.32 0.66 2 1 C-2.95 4.3 -7.9 7.6 -13 11 C-13.66 10.67 -14.32 10.34 -15 10 C-10.47125612 6.07508864 -5.39401009 2.62540314 0 0 Z " fill="#9F8148" transform="translate(129,37)"/>
<path d="M0 0 C3.13816827 1.49776213 5.90125227 3.32500158 8.75 5.3125 C6.75 6.3125 6.75 6.3125 3.9375 5.625 C0.64768193 4.27036903 -1.59524043 2.65493491 -4.25 0.3125 C-2.25 -0.6875 -2.25 -0.6875 0 0 Z " fill="#CFB76E" transform="translate(168.25,31.6875)"/>
<path d="M0 0 C0.66 0.33 1.32 0.66 2 1 C1.01 1.33 0.02 1.66 -1 2 C-1.68620031 3.32338632 -2.34786461 4.65949948 -3 6 C-4.59716811 8.06722076 -6.29136328 10.02157854 -8 12 C-8.33 11.01 -8.66 10.02 -9 9 C-7.63671875 6.9921875 -7.63671875 6.9921875 -5.6875 4.875 C-5.05199219 4.17117188 -4.41648438 3.46734375 -3.76171875 2.7421875 C-2 1 -2 1 0 0 Z " fill="#133169" transform="translate(166,267)"/>
<path d="M0 0 C-1.30477222 3.91431665 -2.98673306 4.57812588 -6.4375 6.75 C-7.92056641 7.70132813 -7.92056641 7.70132813 -9.43359375 8.671875 C-10.28050781 9.11015625 -11.12742188 9.5484375 -12 10 C-12.66 9.67 -13.32 9.34 -14 9 C-12.04594482 7.49412261 -10.08718716 5.99521356 -8.125 4.5 C-7.56941406 4.07074219 -7.01382813 3.64148438 -6.44140625 3.19921875 C-2.2265625 0 -2.2265625 0 0 0 Z " fill="#72552F" transform="translate(197,177)"/>
<path d="M0 0 C0.66 0.33 1.32 0.66 2 1 C-1.85873847 4.30749011 -5.72545575 7.2520787 -10 10 C-10.66 9.67 -11.32 9.34 -12 9 C-8.11327187 5.81994972 -4.10047867 2.89445553 0 0 Z " fill="#650A15" transform="translate(258,273)"/>
<path d="M0 0 C3.5875213 1.33250791 6.8364623 2.830717 10 5 C10 5.66 10 6.32 10 7 C10.99 7.33 11.98 7.66 13 8 C12.01 8.495 12.01 8.495 11 9 C8.3984375 7.63671875 8.3984375 7.63671875 5.375 5.6875 C4.37210938 5.05199219 3.36921875 4.41648437 2.3359375 3.76171875 C1.56507813 3.18035156 0.79421875 2.59898438 0 2 C0 1.34 0 0.68 0 0 Z " fill="#A19F9D" transform="translate(235,73)"/>
<path d="M0 0 C0.66 0 1.32 0 2 0 C1.67 0.99 1.34 1.98 1 3 C0.85507877 4.40664926 0.75371069 5.8181133 0.68359375 7.23046875 C0.64169922 8.03291016 0.59980469 8.83535156 0.55664062 9.66210938 C0.51732422 10.49548828 0.47800781 11.32886719 0.4375 12.1875 C0.39431641 13.03248047 0.35113281 13.87746094 0.30664062 14.74804688 C0.20068482 16.83184433 0.0998498 18.91590103 0 21 C-0.33 21 -0.66 21 -1 21 C-1.02888146 17.68751813 -1.04675799 14.37506833 -1.0625 11.0625 C-1.07087891 10.11697266 -1.07925781 9.17144531 -1.08789062 8.19726562 C-1.09111328 7.29814453 -1.09433594 6.39902344 -1.09765625 5.47265625 C-1.10289307 4.64000244 -1.10812988 3.80734863 -1.11352539 2.94946289 C-1 1 -1 1 0 0 Z " fill="#A37431" transform="translate(90,189)"/>
<path d="M0 0 C4.67105792 1.55701931 8.08705685 4.08447373 12 7 C11.01 7.33 10.02 7.66 9 8 C6.9921875 6.85546875 6.9921875 6.85546875 4.875 5.1875 C4.17117188 4.64480469 3.46734375 4.10210937 2.7421875 3.54296875 C1 2 1 2 0 0 Z " fill="#A27C7D" transform="translate(274,175)"/>
<path d="M0 0 C0 3.3 0 6.6 0 10 C-0.33 9.34 -0.66 8.68 -1 8 C-1.66 8 -2.32 8 -3 8 C-3 5.69 -3 3.38 -3 1 C-1 0 -1 0 0 0 Z " fill="#6E5026" transform="translate(27,141)"/>
<path d="M0 0 C1.32 0.66 2.64 1.32 4 2 C0.8745041 4.64465038 -2.08788267 5.84414715 -6 7 C-4.77065985 3.31197956 -3.06140622 2.27643027 0 0 Z " fill="#970A15" transform="translate(262,268)"/>
<path d="M0 0 C1.07999887 3.2399966 0.92129428 4.38363535 0.1875 7.625 C0.01605469 8.42164063 -0.15539062 9.21828125 -0.33203125 10.0390625 C-1 12 -1 12 -3 13 C-3.38281159 7.76824163 -2.21854707 4.62197306 0 0 Z " fill="#C91924" transform="translate(322,217)"/>
<path d="M0 0 C0.66 0.33 1.32 0.66 2 1 C0.7934375 2.11375 0.7934375 2.11375 -0.4375 3.25 C-2.76988591 5.75304829 -3.63534394 6.7180955 -4 10 C-4.66 10 -5.32 10 -6 10 C-5.72510809 5.96825194 -5.46508424 4.43105369 -2.4375 1.625 C-1.633125 1.08875 -0.82875 0.5525 0 0 Z " fill="#604C28" transform="translate(92,185)"/>
<path d="M0 0 C0 0.99 0 1.98 0 3 C-4.34285714 7 -4.34285714 7 -7 7 C-6.8125 5.125 -6.8125 5.125 -6 3 C-3.5 1.8125 -3.5 1.8125 -1 1 C-0.67 0.67 -0.34 0.34 0 0 Z " fill="#C18F41" transform="translate(154,145)"/>
<path d="M0 0 C0.33 0 0.66 0 1 0 C0.38461538 6.52307692 0.38461538 6.52307692 -1.5625 8.9375 C-2.036875 9.288125 -2.51125 9.63875 -3 10 C-3.66 9.67 -4.32 9.34 -5 9 C-4.54625 8.2575 -4.0925 7.515 -3.625 6.75 C-2.31359204 4.53069422 -1.11719197 2.32032178 0 0 Z " fill="#8F6E39" transform="translate(155,138)"/>
<path d="M0 0 C0.66 0.33 1.32 0.66 2 1 C1.67 1.99 1.34 2.98 1 4 C-2.5625 5.1875 -2.5625 5.1875 -6 6 C-6 5.34 -6 4.68 -6 4 C-4.03852126 2.61061923 -2.03833424 1.2739589 0 0 Z " fill="#C7A053" transform="translate(137,32)"/>
<path d="M0 0 C-4.455 2.97 -4.455 2.97 -9 6 C-7 1 -7 1 -4.5 -0.375 C-2 -1 -2 -1 0 0 Z " fill="#D92029" transform="translate(249,211)"/>
<path d="M0 0 C-3.20336822 2.83374881 -5.78087253 3.5205537 -10 4 C-4.4 -2.2 -4.4 -2.2 0 0 Z " fill="#BF964C" transform="translate(118,48)"/>
<path d="M0 0 C0.66 0.33 1.32 0.66 2 1 C-0.31 2.65 -2.62 4.3 -5 6 C-5.66 5.67 -6.32 5.34 -7 5 C-4.63707344 2.47411298 -3.33537489 1.11179163 0 0 Z " fill="#6D0813" transform="translate(244,283)"/>
<path d="M0 0 C0.66 0.33 1.32 0.66 2 1 C-0.64 2.98 -3.28 4.96 -6 7 C-6 6.01 -6 5.02 -6 4 C-3 1.8125 -3 1.8125 0 0 Z " fill="#533C1E" transform="translate(101,241)"/>
<path d="M0 0 C1.61949011 2.57213134 2.04408751 3.67669159 1.625 6.75 C1.41875 7.4925 1.2125 8.235 1 9 C0.34 9 -0.32 9 -1 9 C-1.125 2.25 -1.125 2.25 0 0 Z " fill="#594121" transform="translate(25,125)"/>
<path d="M0 0 C1.11375 0.598125 2.2275 1.19625 3.375 1.8125 C4.00148438 2.14894531 4.62796875 2.48539062 5.2734375 2.83203125 C7 4 7 4 9 7 C5.56072421 5.7580393 2.74792181 4.44259716 0 2 C0 1.34 0 0.68 0 0 Z " fill="#9F9E9F" transform="translate(287,107)"/>
<path d="M0 0 C0.66 0 1.32 0 2 0 C2 1.98 2 3.96 2 6 C1.01 6.495 1.01 6.495 0 7 C-0.99 6.01 -1.98 5.02 -3 4 C-2.34 4 -1.68 4 -1 4 C-0.67 2.68 -0.34 1.36 0 0 Z " fill="#4A3A23" transform="translate(76,315)"/>
<path d="M0 0 C2.475 0.99 2.475 0.99 5 2 C5 2.99 5 3.98 5 5 C2.525 4.01 2.525 4.01 0 3 C0 2.01 0 1.02 0 0 Z " fill="#5C3F1B" transform="translate(44,297)"/>
<path d="M0 0 C0.66 0 1.32 0 2 0 C2.33 2.31 2.66 4.62 3 7 C2.01 6.67 1.02 6.34 0 6 C0 4.02 0 2.04 0 0 Z " fill="#573E1C" transform="translate(24,238)"/>
<path d="M0 0 C1.65 0 3.3 0 5 0 C3.1875 2 3.1875 2 1 4 C0.01 4 -0.98 4 -2 4 C-1.34 2.68 -0.68 1.36 0 0 Z " fill="#7B5829" transform="translate(126,222)"/>
<path d="M0 0 C0.66 0.33 1.32 0.66 2 1 C-3.14285714 5.42857143 -3.14285714 5.42857143 -7 6 C-2.25 1.125 -2.25 1.125 0 0 Z " fill="#8B6E40" transform="translate(96,58)"/>
<path d="M0 0 C0.66 0 1.32 0 2 0 C1.67 0.99 1.34 1.98 1 3 C0.67 2.01 0.34 1.02 0 0 Z " fill="#6F5356" transform="translate(325,316)"/>
<path d="M0 0 C0.99 0.495 0.99 0.495 2 1 C1.67 1.66 1.34 2.32 1 3 C0.67 2.01 0.34 1.02 0 0 Z " fill="#695C5E" transform="translate(324,349)"/>
<path d="M0 0 C0.66 0 1.32 0 2 0 C2 0.66 2 1.32 2 2 C1.34 2 0.68 2 0 2 C0 1.34 0 0.68 0 0 Z " fill="#6A5B5D" transform="translate(324,344)"/>
<path d="M0 0 C0.99 0.495 0.99 0.495 2 1 C1.34 1.66 0.68 2.32 0 3 C0 2.01 0 1.02 0 0 Z " fill="#734D52" transform="translate(325,305)"/>
<path d="M0 0 C0.99 0.495 0.99 0.495 2 1 C1.67 1.66 1.34 2.32 1 3 C0.67 2.01 0.34 1.02 0 0 Z " fill="#8C4147" transform="translate(324,268)"/>
<path d="M0 0 C0.66 0 1.32 0 2 0 C2 0.66 2 1.32 2 2 C1.34 2 0.68 2 0 2 C0 1.34 0 0.68 0 0 Z " fill="#9B4046" transform="translate(325,250)"/>
<path d="M0 0 C0.66 0.33 1.32 0.66 2 1 C1.01 1 0.02 1 -1 1 C-0.67 0.67 -0.34 0.34 0 0 Z " fill="#EEEDEB" transform="translate(281,99)"/>
<path d="M0 0 C0.99 0.495 0.99 0.495 2 1 C1.67 1.66 1.34 2.32 1 3 C0.67 2.01 0.34 1.02 0 0 Z " fill="#A9A49C" transform="translate(324,37)"/>
<path d="M0 0 C0.66 0 1.32 0 2 0 C1.67 0.66 1.34 1.32 1 2 C0.67 1.34 0.34 0.68 0 0 Z " fill="#6D5559" transform="translate(324,328)"/>
<path d="M0 0 C0.66 0.66 1.32 1.32 2 2 C1.34 2 0.68 2 0 2 C0 1.34 0 0.68 0 0 Z " fill="#6F522B" transform="translate(45,302)"/>
<path d="M0 0 C0.66 0 1.32 0 2 0 C1.67 0.66 1.34 1.32 1 2 C0.67 1.34 0.34 0.68 0 0 Z " fill="#754C50" transform="translate(324,301)"/>
<path d="" fill="#794A4F" transform="translate(0,0)"/>
<path d="M0 0 C0.99 0.495 0.99 0.495 2 1 C1.01 1.495 1.01 1.495 0 2 C0 1.34 0 0.68 0 0 Z " fill="#343F5E" transform="translate(158,268)"/>
<path d="" fill="#B94046" transform="translate(0,0)"/>
<path d="" fill="#BD4349" transform="translate(0,0)"/>
<path d="M0 0 C0.66 0.66 1.32 1.32 2 2 C1.34 2 0.68 2 0 2 C0 1.34 0 0.68 0 0 Z " fill="#E3A6A6" transform="translate(275,178)"/>
<path d="" fill="#B0AA9F" transform="translate(0,0)"/>
<path d="M0 0 C0.66 0 1.32 0 2 0 C1.67 0.66 1.34 1.32 1 2 C0.67 1.34 0.34 0.68 0 0 Z " fill="#9E9C94" transform="translate(324,19)"/>
<path d="" fill="#654C50" transform="translate(0,0)"/>
<path d="" fill="#685F50" transform="translate(0,0)"/>
<path d="" fill="#66494F" transform="translate(0,0)"/>
<path d="M0 0 C2 1 2 1 2 1 Z " fill="#6C5558" transform="translate(325,323)"/>
<path d="M0 0 C2 1 2 1 2 1 Z " fill="#69444B" transform="translate(281,322)"/>
<path d="" fill="#69484D" transform="translate(0,0)"/>
<path d="" fill="#705457" transform="translate(0,0)"/>
<path d="" fill="#6B474C" transform="translate(0,0)"/>
<path d="" fill="#695E4C" transform="translate(0,0)"/>
<path d="" fill="#222E54" transform="translate(0,0)"/>
<path d="" fill="#715053" transform="translate(0,0)"/>
<path d="" fill="#77464C" transform="translate(0,0)"/>
<path d="" fill="#743F46" transform="translate(0,0)"/>
<path d="" fill="#826136" transform="translate(0,0)"/>
<path d="" fill="#6C5B40" transform="translate(0,0)"/>
<path d="" fill="#80474B" transform="translate(0,0)"/>
<path d="" fill="#9C2A33" transform="translate(0,0)"/>
<path d="" fill="#5A5452" transform="translate(0,0)"/>
<path d="" fill="#A31D26" transform="translate(0,0)"/>
<path d="" fill="#A84045" transform="translate(0,0)"/>
<path d="" fill="#AF4046" transform="translate(0,0)"/>
<path d="" fill="#A77D3B" transform="translate(0,0)"/>
<path d="" fill="#DB6968" transform="translate(0,0)"/>
<path d="" fill="#CCB7B4" transform="translate(0,0)"/>
<path d="" fill="#BF9472" transform="translate(0,0)"/>
<path d="M0 0 C2 1 2 1 2 1 Z " fill="#E39393" transform="translate(277,182)"/>
<path d="M0 0 C2 1 2 1 2 1 Z " fill="#E1B2AF" transform="translate(272,177)"/>
<path d="" fill="#CBAB86" transform="translate(0,0)"/>
<path d="" fill="#D6D2D1" transform="translate(0,0)"/>
<path d="M0 0 C2 1 2 1 2 1 Z " fill="#E2E0DC" transform="translate(324,132)"/>
<path d="" fill="#E6E6E3" transform="translate(0,0)"/>
<path d="" fill="#D4A44D" transform="translate(0,0)"/>
<path d="M0 0 C2 1 2 1 2 1 Z " fill="#C8C6C4" transform="translate(324,100)"/>
<path d="M0 0 C2 1 2 1 2 1 Z " fill="#C4C5C0" transform="translate(324,95)"/>
<path d="" fill="#D1D1CC" transform="translate(0,0)"/>
<path d="" fill="#C5C3BD" transform="translate(0,0)"/>
<path d="" fill="#E5D2B0" transform="translate(0,0)"/>
<path d="" fill="#B6B3AD" transform="translate(0,0)"/>
<path d="M0 0 C2 1 2 1 2 1 Z " fill="#C2BDB6" transform="translate(280,57)"/>
<path d="" fill="#D8A44E" transform="translate(0,0)"/>
<path d="" fill="#B9B5AC" transform="translate(0,0)"/>
<path d="M0 0 C2 1 2 1 2 1 Z " fill="#AAA7A0" transform="translate(324,46)"/>
<path d="" fill="#DFAE52" transform="translate(0,0)"/>
<path d="" fill="#A4A29D" transform="translate(0,0)"/>
<path d="" fill="#A19F97" transform="translate(0,0)"/>
<path d="" fill="#A19E95" transform="translate(0,0)"/>
<path d="" fill="#A5A195" transform="translate(0,0)"/>
<path d="" fill="#C1AF87" transform="translate(0,0)"/>
<path d="" fill="#615156" transform="translate(0,0)"/>
<path d="" fill="#4A414D" transform="translate(0,0)"/>
<path d="" fill="#433F4B" transform="translate(0,0)"/>
<path d="" fill="#624F52" transform="translate(0,0)"/>
<path d="" fill="#413D49" transform="translate(0,0)"/>
<path d="" fill="#6C595E" transform="translate(0,0)"/>
<path d="" fill="#69595C" transform="translate(0,0)"/>
<path d="" fill="#644E53" transform="translate(0,0)"/>
<path d="" fill="#353C48" transform="translate(0,0)"/>
<path d="" fill="#634D52" transform="translate(0,0)"/>
<path d="" fill="#61464D" transform="translate(0,0)"/>
<path d="" fill="#6C575C" transform="translate(0,0)"/>
<path d="" fill="#6C575A" transform="translate(0,0)"/>
<path d="" fill="#654B50" transform="translate(0,0)"/>
<path d="" fill="#3A3849" transform="translate(0,0)"/>
<path d="" fill="#6D5659" transform="translate(0,0)"/>
<path d="" fill="#674950" transform="translate(0,0)"/>
<path d="" fill="#333A49" transform="translate(0,0)"/>
<path d="" fill="#69593F" transform="translate(0,0)"/>
<path d="" fill="#6D5458" transform="translate(0,0)"/>
<path d="" fill="#64434A" transform="translate(0,0)"/>
<path d="" fill="#6A593D" transform="translate(0,0)"/>
<path d="" fill="#6D565A" transform="translate(0,0)"/>
<path d="" fill="#69484E" transform="translate(0,0)"/>
<path d="" fill="#6F5B3C" transform="translate(0,0)"/>
<path d="" fill="#705155" transform="translate(0,0)"/>
<path d="" fill="#6F444A" transform="translate(0,0)"/>
<path d="" fill="#74494E" transform="translate(0,0)"/>
<path d="" fill="#6F4249" transform="translate(0,0)"/>
<path d="" fill="#715C41" transform="translate(0,0)"/>
<path d="" fill="#724149" transform="translate(0,0)"/>
<path d="" fill="#6C5C42" transform="translate(0,0)"/>
<path d="" fill="#7C5F2D" transform="translate(0,0)"/>
<path d="" fill="#724046" transform="translate(0,0)"/>
<path d="" fill="#723841" transform="translate(0,0)"/>
<path d="" fill="#542D3E" transform="translate(0,0)"/>
<path d="" fill="#784B50" transform="translate(0,0)"/>
<path d="" fill="#763D44" transform="translate(0,0)"/>
<path d="" fill="#7C494D" transform="translate(0,0)"/>
<path d="" fill="#6C552F" transform="translate(0,0)"/>
<path d="" fill="#7B3941" transform="translate(0,0)"/>
<path d="" fill="#7B474C" transform="translate(0,0)"/>
<path d="" fill="#6D532D" transform="translate(0,0)"/>
<path d="" fill="#80373E" transform="translate(0,0)"/>
<path d="" fill="#88343C" transform="translate(0,0)"/>
<path d="" fill="#84683F" transform="translate(0,0)"/>
<path d="" fill="#834449" transform="translate(0,0)"/>
<path d="" fill="#8D303B" transform="translate(0,0)"/>
<path d="" fill="#532742" transform="translate(0,0)"/>
<path d="" fill="#4D4B52" transform="translate(0,0)"/>
<path d="" fill="#715935" transform="translate(0,0)"/>
<path d="" fill="#8E3037" transform="translate(0,0)"/>
<path d="" fill="#87434A" transform="translate(0,0)"/>
<path d="" fill="#932E36" transform="translate(0,0)"/>
<path d="" fill="#904148" transform="translate(0,0)"/>
<path d="" fill="#A42730" transform="translate(0,0)"/>
<path d="" fill="#904247" transform="translate(0,0)"/>
<path d="" fill="#944248" transform="translate(0,0)"/>
<path d="" fill="#AC252D" transform="translate(0,0)"/>
<path d="" fill="#67594F" transform="translate(0,0)"/>
<path d="" fill="#946B37" transform="translate(0,0)"/>
<path d="" fill="#954146" transform="translate(0,0)"/>
<path d="" fill="#B02028" transform="translate(0,0)"/>
<path d="" fill="#8F6B38" transform="translate(0,0)"/>
<path d="" fill="#A03F44" transform="translate(0,0)"/>
<path d="" fill="#9B4C50" transform="translate(0,0)"/>
<path d="" fill="#713046" transform="translate(0,0)"/>
<path d="" fill="#916A33" transform="translate(0,0)"/>
<path d="" fill="#B8262F" transform="translate(0,0)"/>
<path d="" fill="#4C405E" transform="translate(0,0)"/>
<path d="" fill="#A55255" transform="translate(0,0)"/>
<path d="" fill="#7E3F4D" transform="translate(0,0)"/>
<path d="" fill="#BE353C" transform="translate(0,0)"/>
<path d="" fill="#8C3A48" transform="translate(0,0)"/>
<path d="" fill="#927041" transform="translate(0,0)"/>
<path d="" fill="#D0BDBA" transform="translate(0,0)"/>
<path d="" fill="#C39C78" transform="translate(0,0)"/>
<path d="" fill="#D1C3BF" transform="translate(0,0)"/>
<path d="" fill="#C7A37F" transform="translate(0,0)"/>
<path d="" fill="#C8923F" transform="translate(0,0)"/>
<path d="" fill="#E3D4D0" transform="translate(0,0)"/>
<path d="" fill="#C79545" transform="translate(0,0)"/>
<path d="" fill="#DCD0C7" transform="translate(0,0)"/>
<path d="" fill="#E8E7E4" transform="translate(0,0)"/>
<path d="" fill="#E3D6CB" transform="translate(0,0)"/>
<path d="" fill="#BB8A3E" transform="translate(0,0)"/>
<path d="" fill="#B4833A" transform="translate(0,0)"/>
<path d="" fill="#DFDDDA" transform="translate(0,0)"/>
<path d="" fill="#DECDB0" transform="translate(0,0)"/>
<path d="" fill="#DADAD6" transform="translate(0,0)"/>
<path d="" fill="#E2D3C1" transform="translate(0,0)"/>
<path d="" fill="#CD9D4A" transform="translate(0,0)"/>
<path d="" fill="#E8EAE9" transform="translate(0,0)"/>
<path d="" fill="#99743C" transform="translate(0,0)"/>
<path d="" fill="#E6E4E2" transform="translate(0,0)"/>
<path d="" fill="#9D763A" transform="translate(0,0)"/>
<path d="" fill="#F1EEED" transform="translate(0,0)"/>
<path d="" fill="#D7D5D2" transform="translate(0,0)"/>
<path d="" fill="#AC8343" transform="translate(0,0)"/>
<path d="" fill="#BEBEB8" transform="translate(0,0)"/>
<path d="" fill="#BABBB5" transform="translate(0,0)"/>
<path d="" fill="#BD8E45" transform="translate(0,0)"/>
<path d="" fill="#C9C7C3" transform="translate(0,0)"/>
<path d="" fill="#B9B8B2" transform="translate(0,0)"/>
<path d="" fill="#DBA149" transform="translate(0,0)"/>
<path d="" fill="#CB9746" transform="translate(0,0)"/>
<path d="" fill="#C0BEB7" transform="translate(0,0)"/>
<path d="" fill="#EDE4D4" transform="translate(0,0)"/>
<path d="" fill="#C0BCB5" transform="translate(0,0)"/>
<path d="" fill="#BDB9B2" transform="translate(0,0)"/>
<path d="" fill="#B0ADA7" transform="translate(0,0)"/>
<path d="" fill="#EBAD4D" transform="translate(0,0)"/>
<path d="" fill="#B9B4AA" transform="translate(0,0)"/>
<path d="" fill="#B6AFA6" transform="translate(0,0)"/>
<path d="" fill="#99855E" transform="translate(0,0)"/>
<path d="" fill="#A5A49B" transform="translate(0,0)"/>
<path d="" fill="#B0A89E" transform="translate(0,0)"/>
<path d="" fill="#A7A29A" transform="translate(0,0)"/>
<path d="" fill="#DCB159" transform="translate(0,0)"/>
<path d="" fill="#A5A29A" transform="translate(0,0)"/>
<path d="" fill="#B1AC9F" transform="translate(0,0)"/>
<path d="" fill="#ACA79C" transform="translate(0,0)"/>
<path d="" fill="#CCB68C" transform="translate(0,0)"/>
<path d="" fill="#A28C5E" transform="translate(0,0)"/>
<path d="" fill="#A9A59B" transform="translate(0,0)"/>
<path d="" fill="#ADA699" transform="translate(0,0)"/>
<path d="" fill="#A09D97" transform="translate(0,0)"/>
<path d="" fill="#A3A099" transform="translate(0,0)"/>
<path d="" fill="#A9A398" transform="translate(0,0)"/>
<path d="" fill="#C7B289" transform="translate(0,0)"/>
<path d="" fill="#B7985D" transform="translate(0,0)"/>
</svg>
